<svg id="ALIEN" xmlns="http://www.w3.org/2000/svg" viewBox="0 0 463.12 480.62"><defs><style>.cls-1{fill:#494949;}.cls-2{fill:#d3d3d3;opacity:0.53;}.cls-3{fill:#08a473;}.cls-4{fill:#a9ffe2;opacity:0.65;}.cls-5{fill:#b0d6c9;}.cls-16,.cls-17,.cls-21,.cls-6{fill:none;}.cls-17,.cls-20,.cls-21,.cls-6,.cls-7,.cls-8{stroke:#000;stroke-miterlimit:10;}.cls-22,.cls-7{fill:#fff;}.cls-8{fill:#5fc108;}.cls-9{fill:#2cc64d;}.cls-10{fill:#369949;}.cls-11{fill:#1d722a;}.cls-12{fill:#f4efc1;}.cls-13{fill:#b7b28f;}.cls-14,.cls-15{fill:#68b599;}.cls-15{opacity:0.44;}.cls-17{opacity:0.79;}.cls-18,.cls-19{fill:#bcbcbc;}.cls-18{opacity:0.21;}.cls-19{opacity:0.22;}.cls-20{fill:#232323;}.cls-21{stroke-width:0.75px;}</style></defs><title>alien-bag-empty</title><path class="cls-1" d="M216.63,177.44" transform="translate(-15.25 -9.44)"/><path class="cls-2" d="M183.79,445.24s103.82-3.74,117.12,2.28,122,4,97.36,13.4,192.31,25.18-.49,23.31-40.57,13.46-185.54.72c0,0-141.43-7.07-121.8-12S-18,463.06,23.62,458.54,138.69,442.21,183.79,445.24Z" transform="translate(-15.25 -9.44)"/><path class="cls-1" d="M250.05,185.44" transform="translate(-15.25 -9.44)"/><path class="cls-3" d="M313.11,434a1.5,1.5,0,0,0,0-3,1.5,1.5,0,0,0,0,3Z" transform="translate(-15.25 -9.44)"/><polyline class="cls-4" points="152.75 182.32 96.52 270.21 82.38 293.55 82.38 302.23 85.02 307.5 95.77 314.86 164.73 342.04 247.85 375.38 281.64 388.94 355.04 256.83 174.55 178.25 167.52 176 160.84 176.96 156.08 179.28 152.75 182.32"/><polyline class="cls-5" points="281.64 388.94 354.48 257.83 362.82 260.21 288.29 391.61 294.11 393.94 368.44 262.66 362.82 260.21 355.04 256.83 281.64 388.94 287.12 391.14 362.82 260.21 355.89 257.52 354.48 257.83"/><polyline class="cls-5" points="287.12 391.14 301.63 363.77 302.16 365.12 288.29 391.61"/><path class="cls-6" d="M188.38,187.07l195.31,85L309.36,403.38l-201.88-81c-9.63-3.86-13.4-15-8-23.55l67.27-105.43A17.45,17.45,0,0,1,188.38,187.07Z" transform="translate(-15.25 -9.44)"/><polygon class="cls-6" points="281.64 388.94 355.04 256.83 362.82 260.21 288.29 391.61 281.64 388.94"/><path class="cls-6" d="M234.9,239.94s-6.26,85,14.62,112" transform="translate(-15.25 -9.44)"/><path class="cls-6" d="M221.33,241.94s-4.18,13,2.09,31" transform="translate(-15.25 -9.44)"/><path class="cls-7" d="M109.26,298.44s-1.35,4.27,0,18.5" transform="translate(-15.25 -9.44)"/><path class="cls-8" d="M317.06,414c1.12.85,1.12,4.22,4.46-3.37.75-1.71.71-2.6.25-3C320.18,406.3,316,413.12,317.06,414Z" transform="translate(-15.25 -9.44)"/><path class="cls-7" d="M362.88,327.44" transform="translate(-15.25 -9.44)"/><path class="cls-8" d="M316.88,401.17s-3.48,2.27,0,2.27S320.36,398.91,316.88,401.17Z" transform="translate(-15.25 -9.44)"/><path class="cls-8" d="M113.75,319.94s3.73-4,3.73,0,.94,5-1.86,4S113.75,319.94,113.75,319.94Z" transform="translate(-15.25 -9.44)"/><path class="cls-8" d="M104.37,316.94s2.09-3,2.09,0S102.28,313.94,104.37,316.94Z" transform="translate(-15.25 -9.44)"/><path class="cls-8" d="M327.09,466.73s.87-1.44,6.77.54-3.58,1.22-3.58,1.22Z" transform="translate(-15.25 -9.44)"/><path class="cls-7" d="M312.18,401.94" transform="translate(-15.25 -9.44)"/><path class="cls-8" d="M326.8,435.94s3.13-4,0-4S326.8,435.94,326.8,435.94Z" transform="translate(-15.25 -9.44)"/><path class="cls-8" d="M137.79,329.94s6.26-4,6.26,0c0,0,1.14.36,2.29.86,1.54.66,3.09,1.57,1.89,2.14a7.44,7.44,0,0,0-2.2,2.14c-.93,1.14-1.8,2-3,.86a34.87,34.87,0,0,0-4.18-2.74C137.16,332.12,136.08,331,137.79,329.94Z" transform="translate(-15.25 -9.44)"/><path class="cls-8" d="M147.18,333.94" transform="translate(-15.25 -9.44)"/><path class="cls-8" d="M319.49,466.94s4.18-3,4.18-1,4.17,4,0,5S317.4,464.94,319.49,466.94Z" transform="translate(-15.25 -9.44)"/><path class="cls-8" d="M318.63,473.28c1.34.25,1.06.44,2,1.25-.1.46,13.61,1.16,13.15,1.31-3.23,1-20.5,1.56-17.27,2.59,1.36.44-3.36.26-4.13-.55-3-3.16,3.79-4.24,6.39-4.17C318.22,473.36,318.89,473.76,318.63,473.28Z" transform="translate(-15.25 -9.44)"/><path class="cls-8" d="M346,473.3a10.73,10.73,0,0,1-.44,4.6s-12.91-6.18-6.45-6.18a12.48,12.48,0,0,0,3.52-.36A2.6,2.6,0,0,1,346,473.3Z" transform="translate(-15.25 -9.44)"/><path class="cls-8" d="M178.51,327.94" transform="translate(-15.25 -9.44)"/><path class="cls-9" d="M214.54,296.44c-1,1-1,.95-3.13,1-2.48.06-3.93-.88-3.14-1l2.09-7-2.51-9.71,1-9,7.08-39.16,6.22-18.85,8-14.28,8.36,2,1.56,9.35-1.7,11.08-4,5.57-4.18,6-1,3v7l-3.6,11.14-2.39,5.67-.15,1.22.92,6-1.17,7.45-3.06,11.18-2.91,8.18-3.08,4.19" transform="translate(-15.25 -9.44)"/><path class="cls-10" d="M262.58,214.44l7.31,2v7l-2.09,9-4.18,6-6.26,7-1.05,3-1,5-3.14,9-4.17,8-1.05,1c-.6.19,1.49,2.85,1.05,4a3,3,0,0,1-1.05,2l-2.09,10s-7.31,18-8.35,18-1,3.66-5.75,2.18l-.52-.18h0l-1-1,1-8-1-6L234,272.12s9.74-35.68,10.78-35.68c0,0,10.45-21,11.49-19" transform="translate(-15.25 -9.44)"/><path class="cls-9" d="M285.55,225.44l5.52-1.12,5.22,1,.75,6.12-2.09,6-2.09,7-5.22,8-3.13,6-1.05,5-3.13,9-4.18,9s2.09-1,0,9a100,100,0,0,1-6.26,19s-3.14,10-5.22,9h-2.09s1-15,0-17,13.57-55,13.57-55Z" transform="translate(-15.25 -9.44)"/><polygon class="cls-9" points="142.35 330.35 167.96 343 168.18 338.32 169 332.04 173.06 320.52 175.5 317.38 176.31 314.24 175.5 311.1 173.88 310.05 169.81 309 163.3 311.1 158.42 313.19 153.54 316.33 144.86 325.67 142.35 330.35"/><path class="cls-9" d="M239.6,206.44l2.17,3.88,14.13,6.15,1.46,0s9.39-2,3.13-2-20.89-8-20.89-8" transform="translate(-15.25 -9.44)"/><path class="cls-9" d="M269.89,220.44c2.09,1,15.66,5,15.66,5l-1,3-14.36-5.77" transform="translate(-15.25 -9.44)"/><polyline class="cls-9" points="142.9 329 141.92 331.39 141.85 333 154.38 337.89 166.04 342.04"/><path class="cls-9" d="M267.8,232.44" transform="translate(-15.25 -9.44)"/><path class="cls-9" d="M194.3,135.1s-1.52,9.41-1.55,9.92.78,9.85.78,9.85l4.83,13.87,17.14,30,14.18,7.22,2.21,5,13.05,2.88,10.63,4.55,19.29,5.57,9.55-13.5L310,175.86l6.87-10.61,8.62-16.66,1.27-4.23.34-4.11-.37-.95-3.25-.09-22.64,3.1L281,142.7l-25.95-.17-36.81-2.89-6.16-.34-8-2.48-9.56-2.56Z" transform="translate(-15.25 -9.44)"/><path class="cls-9" d="M272.51,223a1.5,1.5,0,0,0,0-3,1.5,1.5,0,0,0,0,3Z" transform="translate(-15.25 -9.44)"/><path class="cls-9" d="M272.78,222.39a1.5,1.5,0,0,0,0-3,1.5,1.5,0,0,0,0,3Z" transform="translate(-15.25 -9.44)"/><polyline class="cls-11" points="247.32 309 247.85 299.84 247.32 292 244.59 302.68 245.13 308.37"/><polyline class="cls-11" points="213.91 297 214.95 289 213.85 283.71 213.39 281.5 211.34 293.52 213.15 296.8"/><path class="cls-11" d="M209,296.39s1.36-7.17,1.21-7.73-2.12-7-2.12-7l-1.84,10.29,1.1,4.48" transform="translate(-15.25 -9.44)"/><path class="cls-11" d="M183.21,352.44a7.4,7.4,0,0,0,1.43-1c.16-.27,4.71-15,4.71-15l2-8.55h-1.09l-5.59,10.5-1.45,13" transform="translate(-15.25 -9.44)"/><path class="cls-12" d="M164.22,114.07v5l9.12,6.5,13.86,6.78,8.43,2.15,4.48,1.31,12.3,3.62,24.48,1.77,31.47,1.87,35.2-.63,18.4-2.9L334,137.09,350,132l6.49-3.68-1.13-9.24L350,113.29l-8.68-12.18L337.61,96l-2.26-5.55V86.5L335,82.59l-1.83-10.28-5-28.15L324.86,28,323,24.07l-4.53-5L311,17l-12-3.3-9.4-1.63-6.28-.6-13.55-.9h-8.33l-11.84-.47-8.55.75-4.13.14-8.64,1.49-3.42.59-9.4,2-8.09,4-3,2.95c-6.9,17.92-12.65,38.29-17.76,60" transform="translate(-15.25 -9.44)"/><path class="cls-12" d="M169.2,124.94" transform="translate(-15.25 -9.44)"/><path class="cls-13" d="M335,136.53" transform="translate(-15.25 -9.44)"/><polygon class="cls-13" points="285.56 132.87 285.56 127.57 283.35 115.5 281.26 107.5 278.82 96.94 275.36 88.99 273.56 19.6 242.1 0.5 262.06 1.37 285.56 4.74 302.84 10.7 309.28 18.4 316.42 55.06 319.77 76.94 318.17 80 325.7 91.54 333.53 102.03 340.53 111.58 340.87 118.74 332.18 122.42 323.85 126.19 285.56 132.87"/><path class="cls-10" d="M251.68,216.7s8.71-22.68,6.82-73.76l48.78-1.27,17.43-2.37,2.36.95L324.71,150l-4.83,10.66-7.21,11.42-14.07,20.4-18.82,23.95-4.43,6-5-2.07.55-3.61-8.29-3.29-1.81,1.37-4.67,3.46" transform="translate(-15.25 -9.44)"/><path class="cls-10" d="M303.71,228.44" transform="translate(-15.25 -9.44)"/><rect class="cls-10" x="255.51" y="211.45" width="4.98" height="3.74" rx="1.55"/><path class="cls-9" d="M276.08,226.33a1.5,1.5,0,0,0,0-3,1.5,1.5,0,0,0,0,3Z" transform="translate(-15.25 -9.44)"/><path class="cls-9" d="M275.88,226.07a1.5,1.5,0,0,0,0-3,1.5,1.5,0,0,0,0,3Z" transform="translate(-15.25 -9.44)"/><path class="cls-9" d="M276,226a1.5,1.5,0,0,0,0-3,1.5,1.5,0,0,0,0,3Z" transform="translate(-15.25 -9.44)"/><path class="cls-9" d="M259.64,219.34a10.93,10.93,0,0,0,4.48.48,16.51,16.51,0,0,1,2.11,0s.31,0,.12,0l.11,0,.49.11.24.08s.28.1.11,0,.08,0,.11.06l.28.15a1.51,1.51,0,0,0,2.05-.54,1.53,1.53,0,0,0-.53-2.05,8.71,8.71,0,0,0-4.69-.91c-.73,0-1.47.06-2.2,0l-.53,0-.26,0c.14,0,.17,0,0,0a6.23,6.23,0,0,1-1.12-.32,1.5,1.5,0,0,0-1.84,1.05,1.53,1.53,0,0,0,1.05,1.84Z" transform="translate(-15.25 -9.44)"/><path class="cls-10" d="M258.64,219.82c-.14.11.23-.11.06,0a2.3,2.3,0,0,1,.5-.13,4.92,4.92,0,0,1,.83,0,11.82,11.82,0,0,0,2.59-.14,3.31,3.31,0,0,0,2.67-3.88,1.51,1.51,0,0,0-1.84-1.05l-3,.94,1.16,2.74c1.13-.53,2.93,0,4.07.58a5.77,5.77,0,0,1,1,.57,3.12,3.12,0,0,1,.54.55s.22.43.14.24c0,.07.13.58.11.39,0,0,0,.49,0,.24q-.09.26,0,.09a2.61,2.61,0,0,1-.17.28l1.7-.69-7-2.78a1.51,1.51,0,0,0-1.84,1.05,1.52,1.52,0,0,0,1.05,1.84l7,2.78a1.5,1.5,0,0,0,1.69-.69c1.54-2.38-.18-5.14-2.38-6.3s-5-1.86-7.42-.74a1.5,1.5,0,0,0,1.16,2.74l3-.94-1.84-1.05a.26.26,0,0,1,0-.15c0-.07,0-.07,0,0s0,.1,0,0l-.08.14c.15-.12-.3.17-.12.08a4,4,0,0,1-1.78.16,5.55,5.55,0,0,0-3.91,1.08,1.51,1.51,0,0,0,0,2.12,1.54,1.54,0,0,0,2.12,0Z" transform="translate(-15.25 -9.44)"/><path class="cls-10" d="M269,220.07a1.5,1.5,0,0,0,0-3,1.5,1.5,0,0,0,0,3Z" transform="translate(-15.25 -9.44)"/><path class="cls-10" d="M265.67,221.08A4.8,4.8,0,0,0,267,217a3.5,3.5,0,0,0-2.57-2.66c-1.53-.31-2.76.57-4,1.33L257,217.83a1.5,1.5,0,0,0,1.51,2.59l2.73-1.69,1.33-.82.68-.41a1.71,1.71,0,0,1,.23-.13c.33-.18-.23,0,.13-.05.06,0,.37,0,.19,0s-.1,0,0,0,.08,0-.13,0c0,0,.39.05.13,0s0,0,.1.07c.23.11-.11-.13,0,0s.17.12.19.19c-.11-.15-.14-.17-.08-.08l.06.09c.16.27,0,0,0,0s.09.31.09.31,0-.31,0,0c0,.11-.08.39,0,.11,0,.1-.05.21-.08.31s-.16.31,0,.07a4.94,4.94,0,0,1-.34.57c-.17.26.13-.14-.09.11a1.5,1.5,0,0,0,2.12,2.13Z" transform="translate(-15.25 -9.44)"/><polygon class="cls-14" points="236.42 208.46 234.79 215.39 239.99 209.58 237.39 207.68 236.42 208.46"/><path class="cls-15" d="M231.73,307.44S228.64,325.9,220,367l76.93,30.86,73.4-132.11L296,233.51l-2,9.1-4.57,6.64L285,256.9l-1.57,6-2.32,8-3.82,9.53-1.17.5,1,3.32-2.38,11.63-4.89,13-3.18,7.5-2.28,1.68-3.64-1.15-1.41-3.82,1.26-6.48,2.73-11.23,13.15-50.31,8-15.88-14.08-6-2.61,9.11-10.08,12.58-1.93,3.25-.54,6.87-8.56,15.82,1,3.77-2.27,11.42-5.66,13.5s-4.14,7.21-4.45,7.21S231.73,307.44,231.73,307.44Z" transform="translate(-15.25 -9.44)"/><polyline class="cls-9" points="233.97 218.5 216.39 298.53 213.39 297.64 214.95 294.42 215.76 289.25 213.47 282.47 217.55 266.32 223.63 244.24 232.47 220.59"/><path class="cls-6" d="M209.93,72.18" transform="translate(-15.25 -9.44)"/><path class="cls-6" d="M232.09,55.84a5.49,5.49,0,0,1,2,.24c.86.34,2.17,3.88,2.07,5.13s.81,2.86-1.71,7.75" transform="translate(-15.25 -9.44)"/><path class="cls-6" d="M232.09,55.5A11.85,11.85,0,0,0,231,53.42l-1.26-1-2-.73L225,51.39l-2.09.49-.91.82-1.16,2.08L219.76,59s-.66,5.08-.45,5.85.81,4.89,3.48,6.1,3.74.92,3.74.92h2.38l1.26-.24,1.31-.29,1.52-.83L234.47,69" transform="translate(-15.25 -9.44)"/><path d="M204.32,59s8.64-1,12.81-7.81l2.67.06s-2,8.46-1.72,8.23l-3.23.17,0-.94.16-2.45-7.13,2.89s5,7.3,3.62,12.59l-3.36.21S210.91,65.48,204.32,59Z" transform="translate(-15.25 -9.44)"/><path d="M225.89,52.43s-8.08,11.89,0,18.75l1.05.49-4.64-.78-2.77-5,.27-8.36,2.83-5.39,3.5-.58Z" transform="translate(-15.25 -9.44)"/><path d="M226.7,52.24s3.67,5.14,2.43,5.46,3,0,3,0,3.13,8.74-3.44,13.26l-.1,1,4.66-1.62L234.82,69l.88-2.82.77-4.15s-1.31-7.45-4.08-5.87C232.39,56.12,228.69,49.52,226.7,52.24Z" transform="translate(-15.25 -9.44)"/><path class="cls-12" d="M227,52.24" transform="translate(-15.25 -9.44)"/><path d="M236.47,71.94h3.91l.94-11.34s-1.68-7.68-2.1-7.48l2.91-.29.34-.59h-3.12l-2-.85-2.67.42s5.5,8,1.79,19.86" transform="translate(-15.25 -9.44)"/><path d="M245.57,52.6s6.29,3.8.16,8.82l1.26,1,3-1s1-2.72,1.05-2.72.46-3.52.46-3.52l-3-2.75-3-.31Z" transform="translate(-15.25 -9.44)"/><path d="M247.42,63.63l3.27-.17-.24,2.14-1.72,1.68s-.5,5.68.07,5.71h-3.5l-.37-3.49S246.81,64.92,247.42,63.63Z" transform="translate(-15.25 -9.44)"/><path d="M257.36,52.24a16.46,16.46,0,0,0-1.52,17.3l2.53,1.64-3.14.24-3.71-2.9-1.09-5.9,1.92-8.91L255,51.39Z" transform="translate(-15.25 -9.44)"/><path d="M258.06,52.79l1.72-.88s1.68.45,1.75.88a25.28,25.28,0,0,0,1.69,2.42c0,.15,1.07.62,1.07.62l1.81.5S271.49,68.1,261,72.18l-3.68-.51,1.86-.92,3.2-1.46.7-2,1.71-3.8L264.08,58l-1.17-.72a4.7,4.7,0,0,1-1.12.5,6.3,6.3,0,0,1-1.45-.5l-3.69-6,2.57.5v1.14" transform="translate(-15.25 -9.44)"/><polyline points="250.09 55.45 248.82 52.95 250.95 52.86"/><path d="M256.65,70.7s0,1,.35,1,1.66.18,1.66.18Z" transform="translate(-15.25 -9.44)"/><polygon points="249.33 49.55 248.07 47.62 249.04 47.37 249.33 49.55"/><path d="M275,51.58c.08.34-.93,12.8-3.42,14.34l2.56.13,6.81-2.45.43,8.49,3.14-.3-.68-7.67,1.89.77,2.41-.84-4.1-.59.92-2L282,60.89l-.64,2.19-5.29.65s3.78-11.71,2.23-12.34A4.71,4.71,0,0,0,275,51.58Z" transform="translate(-15.25 -9.44)"/><path d="M285.53,56.81a8.16,8.16,0,0,1,7.73-5.66s8.09.77,8,2.58c0,0,3.81,1.42-2.68,7.29,0,0-10.22,7-9.09,7.94L289,70.7l8.22-.71-1.61-2.71a10,10,0,0,1,3.9-.32l-.4.38,3.33,4.12-.56.63-2.1-.1-2.62-1.29-4.6.45-3.74.79-3.22-.09-.13-1.15,1.11-3.1L297.24,59s4.11-6.42-2.76-6.29l-1.22-.27-1.88.59-1.87,2.81-.69,1.77-2.36-.13Z" transform="translate(-15.25 -9.44)"/><path d="M309.43,71.67s-7.34-6.84-2.69-16.2l1.62-1.35h-3.57s-2.5,2.79-2.4,3.13-.57,6.8-.57,6.8l1.38,4.18,2.63,3,3,1Z" transform="translate(-15.25 -9.44)"/><path d="M310,72.09l3.58-.67,2.21-2.22,2.26-3.79.32-6.71-2-5.42-3.77-1.55-5.52-.2-2.06.9,1.05.72,5.64-.51s5.81,4.57,2.24,13.8Z" transform="translate(-15.25 -9.44)"/><path class="cls-6" d="M191.51,325.05c1.4-.06-7.81,34-8.17,26.92-.54-10.52,3.63-19.25,7.36-24.71a6.07,6.07,0,0,0-.64-7.36,3.61,3.61,0,0,0-2.09-1c-17.89-2.23-30.19,20.31-30.19,20.31-1.2,2.78-.65,3.15-.65,3.15l1.54.63" transform="translate(-15.25 -9.44)"/><path class="cls-6" d="M238,208.67" transform="translate(-15.25 -9.44)"/><path class="cls-6" d="M238,208.94" transform="translate(-15.25 -9.44)"/><path class="cls-6" d="M238,199.94l2.61,9.73-1.88,9.22c.53,4.47-10.75,13.56-9.41,18.84s-6.55,22.32-6.55,22.32c4.37,7.78-6.52,34.5-6.52,34.5s-2.07,4.76-6.43,3.07a5.17,5.17,0,0,1-3.61-5.63c8.11-73.82,17.92-82.45,17.92-82.45l2.49-5.6,4.07-6Z" transform="translate(-15.25 -9.44)"/><path class="cls-6" d="M270.38,223.34l-2.86,9c.1,4.53-12.42,12.17-11.57,17.61s-9,21.46-9,21.46c3.74,8.32-10.15,33.62-10.15,33.62s-2.61,4.49-6.93,2.25-3.16-6.08-3.16-6.08c15.71-72.68,26.68-80.06,26.68-80.06l3.12-4,6.57-3.2,7.31,3Z" transform="translate(-15.25 -9.44)"/><path class="cls-6" d="M296.42,232.22l-2.51,9.06c-.07,4.44-10,13-9.56,18.32s-7.67,21.86-7.67,21.86c2.63,7.86-9,33.93-9,33.93s-2.17,4.63-5.45,2.8-2.26-5.71-2.26-5.71c14.57-72.8,23.33-81,23.33-81l2.75-5.71,5.22-2,5.23,2v6.66" transform="translate(-15.25 -9.44)"/><path class="cls-6" d="M255.05,227.6" transform="translate(-15.25 -9.44)"/><path class="cls-6" d="M208,296.07c1.25,2.13,2.07-7.13,2.07-7.13l-2.21-8" transform="translate(-15.25 -9.44)"/><path class="cls-6" d="M228.64,290.94l2.09,8s-.78,9.26-2,7.13" transform="translate(-15.25 -9.44)"/><path class="cls-6" d="M263.1,301.44v7.5s.13,11.13-1.05,9" transform="translate(-15.25 -9.44)"/><path class="cls-6" d="M261,214.94c-7.31-1-20.89-9-20.89-9" transform="translate(-15.25 -9.44)"/><path class="cls-6" d="M271.45,220.94c-2.05-.77-4.15-.83,14.62,5" transform="translate(-15.25 -9.44)"/><path class="cls-6" d="M148.75,340.44" transform="translate(-15.25 -9.44)"/><path class="cls-6" d="M208.8,45.94" transform="translate(-15.25 -9.44)"/><path class="cls-6" d="M174.34,52.94" transform="translate(-15.25 -9.44)"/><path class="cls-16" d="M257.36,10.44s14.62,0,19.84,1,12.53,2,19.84,3,13.57,4,15.66,7,6.27,18,5.22,25" transform="translate(-15.25 -9.44)"/><path class="cls-17" d="M163.89,113.94c-.28.37,9.42-12.28,14.31-18.76.62-.82,1.28-1.62,2-2.41A52.15,52.15,0,0,0,184.59,87c2.87-4.63,3.89-9.81,4.95-15a317,317,0,0,1,15.08-50c37.91,10.06,77.53,8,116.77,5.22,1.11-.07,2.38-.09,3.14.68a3.54,3.54,0,0,1,.78,2l9.38,52.66a10.53,10.53,0,0,1,.14,4.5c-.87,3.24-4.52,5-7.84,6a110.3,110.3,0,0,1-20,3.83,309.31,309.31,0,0,1-48.59,1.85,302.59,302.59,0,0,1-48-5.69q-4.54-.92-9-2.14c-2.45-.68-5.39-1.23-7.48-2.63a63.7,63.7,0,0,1-7-6.24" transform="translate(-15.25 -9.44)"/><path class="cls-6" d="M334.11,88.94a10.35,10.35,0,0,1,2.09,5c0,1,11.48,16,11.48,16l7.31,9s3.14,8-1,10-5.22,3-5.22,3l-10.44,4-13.58,3-18.8,3-17.75,1H266.23l-27.15-1-27.15-3-26.11-7-17.75-9-3.13-3-1.05-1s-1-5,0-5" transform="translate(-15.25 -9.44)"/><path class="cls-6" d="M339.11,98.43" transform="translate(-15.25 -9.44)"/><path class="cls-6" d="M183.93,88" transform="translate(-15.25 -9.44)"/><path class="cls-6" d="M178.51,93.94" transform="translate(-15.25 -9.44)"/><polyline class="cls-6" points="309.46 18.5 307.37 14.5 304.24 11.5 299.02 8.5 285.44 4.5 273.95 2.5 263.51 1.5 252.02 0.5 239.49 0.5"/><polyline class="cls-6" points="239.95 0.5 219.65 1.5 209.21 3.5 199.81 5.5 192.5 8.5 189.37 12.5"/><path class="cls-6" d="M185.3,89.44" transform="translate(-15.25 -9.44)"/><path class="cls-6" d="M184.26,88.44l4.7,3.5,12.53,6,12.53,4,17.75,3,23,2,20.89,1s29.24-1,30.28-1,18.8-2,18.8-2l14.62-6" transform="translate(-15.25 -9.44)"/><path class="cls-6" d="M177.72,95.83c2.88,2.11,8.1,6.11,8.1,6.11l20.89,8,31.33,6s38.63,1,39.68,1,31.33-1,31.33-1l24-4,10.45-6,.85-.39" transform="translate(-15.25 -9.44)"/><path class="cls-6" d="M172.06,103.26s5.41,3.68,8.54,5.68,14.62,5,15.67,6,27.15,7,27.15,7l25.06,3h32.37l30.29-1,23-5,14.62-6,.91-.6" transform="translate(-15.25 -9.44)"/><path class="cls-6" d="M164.49,113.16a79.5,79.5,0,0,0,5.67,5.78c1,1,15.66,8,16.71,8,2.72,0,5.94,1.35,8.55,2,4.9,1.2,9.77,2.54,14.7,3.63a211.69,211.69,0,0,0,31.55,4.34c20.18,1.37,40.34.74,60.51.05l.6,0,24-3,20.88-5,8.36-6" transform="translate(-15.25 -9.44)"/><path class="cls-18" d="M286.59,48.44h-5.22s15.67-13,34.46-14c0,0-6.26,4-8.35,5s-19.84,7-19.84,7v2" transform="translate(-15.25 -9.44)"/><path class="cls-19" d="M225,42.44l-1-7s-3.13-3-11.49-2c0,0,6.27,0,12.53,8" transform="translate(-15.25 -9.44)"/><path class="cls-6" d="M194.49,134.22c-2.36,10.8-2.49,15.94-.14,23.7C200,176.68,205.57,183,216,199.47h0" transform="translate(-15.25 -9.44)"/><path class="cls-6" d="M298.6,197.94" transform="translate(-15.25 -9.44)"/><path class="cls-6" d="M236.82,223.78" transform="translate(-15.25 -9.44)"/><path class="cls-6" d="M275,222.51s57.45-68,51.66-83.21" transform="translate(-15.25 -9.44)"/><path class="cls-6" d="M236.68,234.25" transform="translate(-15.25 -9.44)"/><path class="cls-6" d="M233.86,227.94" transform="translate(-15.25 -9.44)"/><path class="cls-6" d="M235.43,231.94" transform="translate(-15.25 -9.44)"/><path class="cls-6" d="M239.08,239.94" transform="translate(-15.25 -9.44)"/><path class="cls-6" d="M244.09,238.47" transform="translate(-15.25 -9.44)"/><path class="cls-6" d="M241.59,239.33" transform="translate(-15.25 -9.44)"/><path class="cls-6" d="M239.6,240.78" transform="translate(-15.25 -9.44)"/><path class="cls-6" d="M240.65,231.44" transform="translate(-15.25 -9.44)"/><path class="cls-6" d="M243.58,239.33" transform="translate(-15.25 -9.44)"/><path class="cls-6" d="M207.85,154.83" transform="translate(-15.25 -9.44)"/><path class="cls-6" d="M258.4,181.62c13.27.61,50.11-1.1,51.28-33.53a2.79,2.79,0,0,0-2.59-2.81c-9.47-.9-42-1.33-50.86,33.57A2.26,2.26,0,0,0,258.4,181.62Z" transform="translate(-15.25 -9.44)"/><line class="cls-6" x1="254.12" y1="146.97" x2="293.01" y2="147.24"/><line class="cls-6" x1="289.8" y1="154.14" x2="248.69" y2="152.87"/><path class="cls-6" d="M248.66,181.66c-14,.47-49.19-1.91-50.3-33.61a2.75,2.75,0,0,1,2.55-2.77c9.34-.89,41.43-1.37,50.67,32.68A3,3,0,0,1,248.66,181.66Z" transform="translate(-15.25 -9.44)"/><line class="cls-6" x1="223.42" y1="146.97" x2="184.53" y2="147.24"/><line class="cls-6" x1="187.73" y1="154.14" x2="228.85" y2="152.87"/><path class="cls-6" d="M331.67,170.57" transform="translate(-15.25 -9.44)"/><path class="cls-6" d="M218.72,159.75" transform="translate(-15.25 -9.44)"/><path class="cls-6" d="M223.42,154.83" transform="translate(-15.25 -9.44)"/><path class="cls-6" d="M216.63,160.7" transform="translate(-15.25 -9.44)"/><path class="cls-6" d="M199.78,153.79" transform="translate(-15.25 -9.44)"/><path class="cls-20" d="M251.12,197.94s-1.71-2.34-2.62-2.34-3.07.81-2.13,2.34,3.68,5.4,3.68,5.4l5-3.87s.89-1.29-1.13-2.71a2.15,2.15,0,0,0-3.23.63l-.64,6" transform="translate(-15.25 -9.44)"/><path d="M218.61,162.74q11.19-.23,22.37-.1a1.5,1.5,0,0,0,0-3q-11.17-.13-22.37.1c-1.93,0-1.93,3,0,3Z" transform="translate(-15.25 -9.44)"/><path d="M224.89,158.2l0-.16-.15,1.16c-.64.3-.7.42-.18.35h11.89c.54,0,1.94-.16,2.32.37a1.54,1.54,0,0,0,2.05.53,1.5,1.5,0,0,0,.54-2,4.82,4.82,0,0,0-4-1.83c-1.89-.09-3.8,0-5.7,0h-5.78a7.49,7.49,0,0,0-2.63.2A1.89,1.89,0,0,0,222,159a1.5,1.5,0,1,0,2.89-.79Z" transform="translate(-15.25 -9.44)"/><path d="M222.79,157.09q-5.35.18-10.71.1a1.51,1.51,0,0,0-1.5,1.5,1.53,1.53,0,0,0,1.5,1.5h.34a1.5,1.5,0,1,0,0-3h-.34v3q5.35.08,10.71-.1a1.53,1.53,0,0,0,1.5-1.5,1.51,1.51,0,0,0-1.5-1.5Z" transform="translate(-15.25 -9.44)"/><path d="M222.79,156.68h-21a1.5,1.5,0,0,0,0,3h21a1.5,1.5,0,0,0,0-3Z" transform="translate(-15.25 -9.44)"/><path d="M200.49,159.2a8.39,8.39,0,0,1,.85.94l-.23-.3a8.62,8.62,0,0,1,1,1.81l-.15-.35a6.86,6.86,0,0,1,.32.9,1.52,1.52,0,0,0,1.85,1.05,1.52,1.52,0,0,0,1-1.85,9.73,9.73,0,0,0-2.61-4.32,1.56,1.56,0,0,0-1.06-.44,1.5,1.5,0,0,0-1.06.44,1.53,1.53,0,0,0,0,2.12Z" transform="translate(-15.25 -9.44)"/><path d="M204.8,163.58a2.07,2.07,0,0,1,1.19-.16h9.85a4.67,4.67,0,0,0,3.46-.91,1.5,1.5,0,0,0-.66-2.5,38.9,38.9,0,0,0-6.93-1.25c-1.12-.1-2.25-.15-3.38-.15a16.42,16.42,0,0,1-3.21-.17,1.54,1.54,0,0,0-1.84,1.05,1.52,1.52,0,0,0,1.05,1.85c2.25.44,4.56.2,6.84.38a35.05,35.05,0,0,1,6.67,1.18l-.66-2.51c-.1.1-.76,0-.92,0h-9.44a6.22,6.22,0,0,0-3.54.57c-1.6,1-.1,3.65,1.52,2.59Z" transform="translate(-15.25 -9.44)"/><path d="M222.1,160.71a26.3,26.3,0,0,1,4-.12l4.31,0,4.13,0a16.94,16.94,0,0,1,4.09.07,1.5,1.5,0,0,0,.79-2.89,16.72,16.72,0,0,0-4.36-.18l-4.65,0a61.11,61.11,0,0,0-9.08.26,1.5,1.5,0,0,0-1.05,1.84,1.54,1.54,0,0,0,1.85,1.05Z" transform="translate(-15.25 -9.44)"/><path d="M216.46,161.49a1.5,1.5,0,0,0,0-3,1.5,1.5,0,0,0,0,3Z" transform="translate(-15.25 -9.44)"/><path d="M224.68,160.12q7.2-.15,14.42,0c1.93,0,1.93-3,0-3q-7.22-.16-14.42,0c-1.93,0-1.94,3,0,3Z" transform="translate(-15.25 -9.44)"/><path d="M242.23,160.92a1.94,1.94,0,0,0,0,.24l0,.23a1.09,1.09,0,0,0,.15.35,1.21,1.21,0,0,0,.25.3,1.34,1.34,0,0,0,.4.23.36.36,0,0,0,.29,0,.41.41,0,0,0,.18-.23.42.42,0,0,0,0-.29.5.5,0,0,0-.23-.17h0l.09,0a.52.52,0,0,1-.19-.11l.08.06a.54.54,0,0,1-.15-.15l.05.08a1.39,1.39,0,0,1-.11-.21l0,.09a1.17,1.17,0,0,1,0-.2v.1a.67.67,0,0,1,0-.2v.1h0a.26.26,0,0,0,0-.15.23.23,0,0,0,0-.14.4.4,0,0,0-.22-.17.36.36,0,0,0-.29,0,.36.36,0,0,0-.18.22Z" transform="translate(-15.25 -9.44)"/><path d="M277,160.87h9.1c.81,0,1.05-1.35.19-1.47q-8.55-1.22-16.95-3.21a.78.78,0,0,0-.93.53c-.61,1.8-2.17,3-3.64,4.12a.77.77,0,0,0,.18,1.38c3.39.83,7,.54,10.5.57l11.45.12,11.44.11c1.74,0,3.53.15,5.27,0a2.24,2.24,0,0,0,2.27-1.42l-1.37.18.07.59,1.45.39,2-5.21a.76.76,0,0,0-.73-1l-21,.07-10.37,0c-2.41,0-5.39-.28-7.16,1.72-.64.72.42,1.78,1.06,1.06a4.78,4.78,0,0,1,3.65-1.27c1.55,0,3.12,0,4.67,0l9.63,0,19.5-.06-.72-.95-2,5.22c-.35.9,1.09,1.27,1.45.39a1.63,1.63,0,0,0-.23-1.73.76.76,0,0,0-1.37.17c-.23.73-3.48.31-4.1.3l-5,0-10.2-.1-9.95-.1c-3.23,0-6.69.26-9.85-.52l.18,1.37c1.81-1.38,3.57-2.8,4.33-5l-.92.52q8.4,2,17,3.2l.2-1.47H277a.75.75,0,0,0,0,1.5Z" transform="translate(-15.25 -9.44)"/><path d="M267.31,161.62c2.87-1.46,6.16-1.23,9.24-.69a65.3,65.3,0,0,0,9.33,1.33c6.62.25,13.29,0,19.92,0a.75.75,0,0,0,0-1.5c-6.94,0-14,.31-20.89-.08-6.07-.35-12.51-3.36-18.36-.4-.86.44-.1,1.73.76,1.3Z" transform="translate(-15.25 -9.44)"/><path d="M305.35,162.74l1.25-4a.75.75,0,0,0-.19-.73,2.74,2.74,0,0,0-2.18-.69c-1.29.06-2.59.2-3.88.28-2.8.18-5.6.3-8.41.38q-8.29.21-16.59-.2c-1,0-1,1.46,0,1.5q7.54.36,15.11.23c2.47,0,5-.14,7.42-.27,1.24-.06,2.47-.14,3.71-.22.87-.06,3.05-.64,3.76,0l-.19-.73-1.26,4c-.29.93,1.16,1.32,1.45.4Z" transform="translate(-15.25 -9.44)"/><path d="M269.65,160.18a15.88,15.88,0,0,1,3.85-.79,14.12,14.12,0,0,1,1.84,0c.46-.1.71.09.76.58l-.62.21a14.61,14.61,0,0,1-7.25.36V162c4.27-1.57,8.86-.16,13.25,0,4.8.15,9.6-.46,14.39-.55a71.05,71.05,0,0,1,7.15.21c1.41.12,3.36.14,3.82-1.57s-1.18-2.21-2.47-2.22c-2.4,0-4.81.13-7.21.2l-8.19.27c-1.76.06-4.48-.35-5.81,1.12-.39.43-.17,1.37.53,1.28a104.36,104.36,0,0,1,22.83-.32l-.65-1.13c-.3.59-1.61.39-2.13.39h-16.4a.75.75,0,0,0,0,1.5h16.89c1.11,0,2.36,0,2.94-1.13a.76.76,0,0,0-.65-1.13,104.36,104.36,0,0,0-22.83.32l.53,1.28c.74-.82,2.26-.59,3.26-.63l4-.14,7.45-.23,4-.11a6.39,6.39,0,0,1,1.85,0c1.71.53-.57.86-1,.85-2.44-.08-4.87-.31-7.32-.27-5.05.06-10.09.73-15.13.54-4.46-.17-9.06-1.51-13.41.09-.63.23-.79,1.29,0,1.44a16.43,16.43,0,0,0,5.68.18c1.24-.18,3.95-.47,4.36-2s-1.16-2.18-2.35-2.28a16.31,16.31,0,0,0-6.27.85c-.91.3-.52,1.75.4,1.45Z" transform="translate(-15.25 -9.44)"/><path class="cls-9" d="M278.31,225a.38.38,0,0,0,0-.75.38.38,0,0,0,0,.75Z" transform="translate(-15.25 -9.44)"/><line class="cls-6" x1="269.01" y1="220.11" x2="255.12" y2="213.9"/><path class="cls-6" d="M255.57,218.37c-1.52-.19-15.7-6.92-15.7-6.92" transform="translate(-15.25 -9.44)"/><line class="cls-6" x1="200.73" y1="190.03" x2="211.34" y2="195.41"/><path class="cls-6" d="M400,320.73" transform="translate(-15.25 -9.44)"/><path class="cls-6" d="M211.14,255.59" transform="translate(-15.25 -9.44)"/><text x="-15.25" y="-9.44"/><path class="cls-21" d="M208.44,71.67" transform="translate(-15.25 -9.44)"/><path class="cls-6" d="M208.44,71.67s.47-8.78-4.44-13a18.5,18.5,0,0,0,13.27-7.49s3.3-.19,3.17.33-3,3.29-2.3,8.13c0,0-3.36.45-3.3,0s-.2-3.17-.2-3.17A25.08,25.08,0,0,1,207.7,59a25,25,0,0,1,3.1,5.35s2.7-.19,2.9.07l.4.51-3,.39a35.19,35.19,0,0,1,.67,6.39Z" transform="translate(-15.25 -9.44)"/><text x="-15.25" y="-9.44"/><path class="cls-6" d="M263.42,55.83l2.07.21.81,1s2.73,3.53.66,9.34-6.42,5.55-6.42,5.55-5.51.6-8-2.4c0,0-1.76-2.52-1.51-4a7.94,7.94,0,0,0-.3-3.18l1.51-7.22s-.2-.68,1.37-2.67,7-.38,7-.38S263.52,53.88,263.42,55.83Z" transform="translate(-15.25 -9.44)"/><path class="cls-6" d="M278.38,51.51c0,7.72-2.18,12.22-2.18,12.22a24,24,0,0,1,4.75-.44l.76-2.08c2.38-.63,3.34.2,3.34.2-.21-.29-.76,2-.76,2a19.7,19.7,0,0,1,3.84,1c-.41.68-2.78.39-2.78.39a5.69,5.69,0,0,0-1.16-.44c-.64,0,.35,7.45.35,7.45a6.37,6.37,0,0,1-3.17.23c-1-3.21-.52-8-.52-8a13.85,13.85,0,0,0-6.72,2.13c-3,.1-2.73-.39-2.73-.39,3.29-3.29,3.59-14.2,3.59-14.2S278.38,50.9,278.38,51.51Z" transform="translate(-15.25 -9.44)"/><path d="M340.22,67.94" transform="translate(-15.25 -9.44)"/><path class="cls-6" d="M285.45,57.25A7.27,7.27,0,0,1,287.72,53a8.4,8.4,0,0,1,5.66-1.6s1.57-.48,5.61.82,3.08,4.07,3.08,4.07l-.55,1.35s-.2,1.07-4.65,4.41c0,0-7.63,4.69-7.93,8.75,0,0,6.21-1.06,8.69-.43,0,0-1.87-1.65-2-3.19a4.5,4.5,0,0,1,3.38,0s-1,.48,3.69,4.59c0,0,0,.5-2.43.47,0,0-3.73-1.43-4.9-1.14s0-.74-7.22,1c0,0-2.48.06-2.68-.33a7.21,7.21,0,0,1,2-4.74c1.47-1.26.71-1.26,7.18-5.95s3.53-7.26,3.53-7.26l-.76-.68s-3.13-2-5.6-.48a7.25,7.25,0,0,0-2.93,4.69l-.71.29S285.35,57.76,285.45,57.25Z" transform="translate(-15.25 -9.44)"/><path class="cls-6" d="M304.85,52.5a12.77,12.77,0,0,1,7.38-.77c3.84.87,4.69,1.69,5.86,5.85s-1.16,10.31-2,11.09a7,7,0,0,1-1.92,2.41,8.92,8.92,0,0,1-5.66,1.1c-1.72-.32-2.22.11-5.05-3.42a14.3,14.3,0,0,1-1.37-10.4l.91-2.08,1.32-1.6,1.11-.48a4.84,4.84,0,0,1,3.08.14s-3,1.36-3.49,6.54a13.3,13.3,0,0,0,3,9.53c.5.43,1.31,1.11,1.61,1s4.7-2.17,5.16-9.34c0,0,.91-5-1.62-8.17a4.08,4.08,0,0,0-5.71-.78S304.4,53,304.85,52.5Z" transform="translate(-15.25 -9.44)"/><path class="cls-6" d="M225.88,52.46c.46-.21,2.93,1,3.08,5.17a6.66,6.66,0,0,0,2.93,0s2.07,5.28.2,8.95a6.4,6.4,0,0,1-3.89,4.55s-1.92.58-4.09-2.17a11.46,11.46,0,0,1-1.47-6.29S223.45,53.52,225.88,52.46Z" transform="translate(-15.25 -9.44)"/><path class="cls-6" d="M240.73,60.54s.15-4.6-1.51-7.21c0,0,1.61.34,4.59-.9,0,0,4.35.46,4.5,4.38,0,0,.1,2.71-1.62,4.07,0,0-.4,1-2.93.78C243.76,61.66,241.14,60.34,240.73,60.54Z" transform="translate(-15.25 -9.44)"/><path class="cls-6" d="M260.34,57.06,260,55.31s-1.06-2.75-2.93-2.88S253,65.86,254.88,67.75c0,0,2.36,5.56,6.16,2.46,0,0,3.07-1.36,3.24-7.82a9.05,9.05,0,0,0-1.06-4.81s-2.39.3-2.18.25C261,57.83,260.13,57.41,260.34,57.06Z" transform="translate(-15.25 -9.44)"/><path class="cls-6" d="M235,51.73l2.48-.34,2.22,1a18.29,18.29,0,0,1,6.86-.29s4.11.37,4.74,3.33a7.21,7.21,0,0,1-.89,5.19s-1.06,1.79-5.86,1.83c0,0,3.31,1.36,3.79,1.16a5.89,5.89,0,0,1,.69-.24,6.9,6.9,0,0,0,1.33,0c.52-.09.06,1.85.06,1.85S247,67.7,249,73c0,0-2.2.68-3.45,0a6.34,6.34,0,0,1,0-5.54,9.41,9.41,0,0,1,2.09-3s-7-5.29-6.77-1.7c.05.73-.55,8.53-.76,9.23a17.35,17.35,0,0,1-3.48,0s1.06-8.55.83-8.55S238.31,57.63,235,51.73Z" transform="translate(-15.25 -9.44)"/><path class="cls-6" d="M353,62.3" transform="translate(-15.25 -9.44)"/><path class="cls-22" d="M204,58.7" transform="translate(-15.25 -9.44)"/></svg>