<svg xmlns="http://www.w3.org/2000/svg" viewBox="0 0 469.5 466.4"><defs><style>.cls-1{fill:#d3d3d3;opacity:0.6;}.cls-16,.cls-2{fill:#00ba66;}.cls-3{fill:#a37c00;}.cls-4{fill:#5dd100;}.cls-5{fill:#000f16;}.cls-6{fill:#00191f;}.cls-15,.cls-7{fill:#ffed43;}.cls-8{fill:#fff;}.cls-10,.cls-11,.cls-12,.cls-13,.cls-14,.cls-9{fill:none;}.cls-10,.cls-11,.cls-13,.cls-14,.cls-15,.cls-16,.cls-9{stroke:#000;stroke-miterlimit:10;}.cls-10{stroke-width:4px;}.cls-11{stroke-width:3px;}.cls-13{stroke-width:2px;}.cls-14{stroke-width:0.25px;}.cls-16{stroke-width:0.75px;}</style></defs><title>leafThug</title><g id="shape"><path class="cls-1" d="M47.54,56c-.59-6.51,49-72.76,95.13-10.64S252.2,175.25,287.39,131.82,359.86.73,397.49,53.6s37.27,144.94.33,178.68,45.41,66,69.57,78S499.84,514,440,437s-130.18-60.63-162.3.3-80.92-117-90-100.84-90.32,85.7-123.13,64.75S79,272.3,79,272.3s-41.34-3.82-59.33-84.13S58.87,180.32,47.54,56Z" transform="translate(-16.11 -19.02)"/></g><g id="colorleaf"><path class="cls-2" d="M270,75.39s-64.81,67.33-64.85,102.66l.76,3.36,24.94,6.52L261.37,185l43.21,5.09S306.2,127.9,270,75.39Z" transform="translate(-16.11 -19.02)"/><path class="cls-2" d="M310.69,58.35" transform="translate(-16.11 -19.02)"/><polyline class="cls-2" points="175.04 216.62 178.51 236.75 176.01 237.41 177.63 238.98 176.01 239.37 175.04 242.66 173.96 254.75 173.96 267.72 181.3 281.26"/><path class="cls-2" d="M200.69,327.45,170.81,264.1l-19.18-21.28-1.36-1.1-1.9-5.94-5.2-10.86-1.71-3-3.41-5.87-10.62-13.14L117,196.14l-7.11-3.56,6.26,17s-7.24-10-7.34-10.11-8.19-6.72-8.19-6.72l-28.14-13.9,7.53,18L68.1,189.74,39.24,179.23l-19.59-6.29,13.83,19.83,10.84,22.75,4.74,9.19-6-1.16,11.7,20.17,10.15,12.82,12.51,13.75L103.82,284l-18,1L102,300.79l24,16,23.16,9.37-12.39-.23,8.14,11L139.08,334l5.41,11-11.16-11.81-13.66-7.52-11.37-2-15.59,1.11-3.19,3.44,7.3,9.28-27.14-3.72-26,3.39-16,7.83,19,15.57s16.17,7.61,17.64,8,16,2.88,16,2.88l14.05-.69,1.82,1.6,3.42,3.38,18.55,9.29,18-.13,27-9.82-7,9,1.48,3.26,1.52,2.47" transform="translate(-16.11 -19.02)"/><path class="cls-2" d="M162.58,387.87l-9.29,3.77,9.29,4.74s-28.68-5.78-44,4l4.39,5.17S87,417.83,77.42,453.7c0,0,28.25-5.19,38.07-22.78" transform="translate(-16.11 -19.02)"/><path class="cls-2" d="M118,436.35" transform="translate(-16.11 -19.02)"/><path class="cls-2" d="M238.45,417" transform="translate(-16.11 -19.02)"/><path class="cls-2" d="M307.69,225.27s-20.41,16.75-29.1,13.56-27.12,10.73-38.13-38.13H233.9s-.63,37.49-32.63,32.64l-10.51-2L197.41,273l-3.67-8.32,3.38,32.52s4.77,2.39,3.74,8.92c0,0,9.14-.52,8.18,9.8,0,0,9.62,2.48,8.34,10.44,0,0,6.77.8,8,9.61,0,0,6.49-3.24,9.26,8.88l-1.87,3.63h31.31s-7.26-4.45,2.55-13H268s2.86-10.5,7.71-8.45c0,0-1.25-9.81,7.78-11.46,0,0-3.25-9.27,7.75-10.56,0,0-1.57-10.13,8.2-10.16,0,0-1.17-10.09,6.52-11.83s1.74.53,1.74.53" transform="translate(-16.11 -19.02)"/><path class="cls-2" d="M194.83,308.93l2.58-.6s-.33,9.07,6,10.09.86-.15,2.44.58c0,0-1.45,6.63,7.81,10.84,0,0,3.62,11.13,9.24,9.76,0,0,3,7.66,5,8.56,0,0-4.9-.83-6,1.56s-1.15,23.54-1.15,23.54l-2.3,33.19S197,434.77,145.66,433.53" transform="translate(-16.11 -19.02)"/><path class="cls-2" d="M145.66,432.51l22.24-55.77-60.77,60.82,3,1.84s26.57.11,46.22-15.89" transform="translate(-16.11 -19.02)"/><polygon class="cls-2" points="150.25 357.72 155.86 358.51 133.05 411.19 120.44 409.4 150.25 357.72"/><path class="cls-2" d="M234,477.49l4.46,5.94,16.13-.82s12,11.08,0-66.87l-16.13-2.8V453.7l-.1,8.78Z" transform="translate(-16.11 -19.02)"/><path class="cls-2" d="M295.58,378.68l55.26-33.8,27.06-30.83,2.07-1.36c50.14-33.28,41.61-47.76,41.61-47.76l-5.5-1c26.36-24.39,24.87-50.6,24.87-50.6,8.27,0,26.57-56.88,26.57-56.88-57.29,17.56-67.44,52-67.44,52l12-31c-48.08,23.46-52,60-52,60v-13c-28.08,12-33,50.21-33,50.21l1-14.18c-15.18,4.66-20.31,33.9-20.31,33.9" transform="translate(-16.11 -19.02)"/><path class="cls-2" d="M408.71,323.11l-9.25,13.83s26.31-19.89,79.12,15.86c0,0-28.51,20.36-57.72,18,0,0-26.54,18.89-54.78,13.48l-6,5.56-66.37-.8,1.87-14.66" transform="translate(-16.11 -19.02)"/><path class="cls-2" d="M347.08,354.43s7.08-30.05,61.63-33" transform="translate(-16.11 -19.02)"/><path class="cls-2" d="M329.94,348.51c.54,2.1,4.8,19.14,4.8,19.14s19-8.21,19-10.49-8.13-18-8.13-18Z" transform="translate(-16.11 -19.02)"/><path class="cls-2" d="M394.28,333.34" transform="translate(-16.11 -19.02)"/><polygon class="cls-2" points="371.02 311.2 373.6 315.2 391.73 304.95 392.49 302.75 391.6 302.62 370.57 307.78 371.02 311.2"/><path class="cls-2" d="M307.14,294.73s-.36,1.9-5.22,1.93.49.55.49.55,1.4,7-5.84,10.77l-2.25-.19s.93,8-7.26,10.41c0,0-1.27,12.58-8.47,10.05,0,0,2.87,8.69-6.68,11.34,0,0,.17,6.47-5.27,9.14l5.27.42,1.69,1.09.95,2.18,1,17.94.12,3.23,18,15.84,15.48-94.7" transform="translate(-16.11 -19.02)"/><path class="cls-2" d="M220.75,373.26l2.49,2.49h48.67l3.79-2.56,18,15.84-14.84,26.36L270,413.18l-12.76-.2-1.71,3.18-19.76-1.92-17.31-6.34c-34.61,31-74.36,25.5-74.36,25.5" transform="translate(-16.11 -19.02)"/><path class="cls-2" d="M350.84,442" transform="translate(-16.11 -19.02)"/><path class="cls-2" d="M334.29,425.22l29.79,9.24,17.47,2.78,21.35-1.6-15.35-25.25-11-9.5L348.9,389s-17.71-4.9-19-4.76l-33.37,4.17-17.7,28.7L299,427.58l7,1.87,8.8,1.29h13.33l11-2.14.68-1.35" transform="translate(-16.11 -19.02)"/><polygon class="cls-2" points="260.07 396.02 276.47 365.25 288.47 372.37 264.81 399.59 260.07 396.02"/><path class="cls-2" d="M266.64,398.87" transform="translate(-16.11 -19.02)"/><polygon class="cls-2" points="339.41 370.81 354.17 376.36 345.6 379.85 335.8 375.33 339.41 370.81"/><path class="cls-2" d="M405.58,398.87" transform="translate(-16.11 -19.02)"/><path class="cls-2" d="M360.08,224.83l2.43-1.66s-.16,14.65-.16,14.65l-5.18.68Z" transform="translate(-16.11 -19.02)"/><polygon class="cls-2" points="423.8 194.43 426.48 194.43 425.14 201.73 423.8 194.43"/><polygon class="cls-2" points="361.79 295.03 363.83 296.34 351.65 308.91 349.97 304.07 361.79 295.03"/><path class="cls-3" d="M273.6,168.19,325.36,191s5.78,1.16-.93,7.41l-52.14-20.51S278.27,169.64,273.6,168.19Z" transform="translate(-16.11 -19.02)"/><path class="cls-4" d="M271.48,166.61s-7,1.72-4.19,8.09S279.06,173.44,271.48,166.61Z" transform="translate(-16.11 -19.02)"/><path class="cls-5" d="M200.69,131l16.67-18.34,12.35-38.3s41.57-15.39,86.07,22.83l-.41,37.27,10.47,45.87-5.26,3.49-15.78-2.7-.22-14.48-40.53-15.76Z" transform="translate(-16.11 -19.02)"/><path class="cls-5" d="M208.65,164.63s11.58-14.48,8.38-27-27.46-1.18-27.46-1.18A35.58,35.58,0,0,0,208.65,164.63Z" transform="translate(-16.11 -19.02)"/><path class="cls-6" d="M181.58,184.93s25.29-6.46,52,4c0,0,61.61-12.39,87,14v5l-9,1s-5.87,35.3-42,30.17c0,0-21.08,7.3-29.12-38.4H233.9s1.23,32.86-30.32,33.32c0,0-41.87,2.32-22-46.09" transform="translate(-16.11 -19.02)"/><path class="cls-2" d="M192.12,299.69s2.44,5.28,2.5,5.33,1.63.37,1.63.37l1.16-3-3-3.42Z" transform="translate(-16.11 -19.02)"/><path class="cls-2" d="M201.42,309.82l2-.39s2.12,1.76,2.25,2.46a27.33,27.33,0,0,1-.35,4.06l-2.64-.59-1.82-5.25Z" transform="translate(-16.11 -19.02)"/><polygon class="cls-2" points="192.63 301.46 195.42 306.92 196.51 307.37 197.56 306.82 197.79 303.46 196.09 301.26 192.63 301.46"/><path class="cls-2" d="M217,330.94s.68,6.28,4.23,5.69c0,0,1.87-4.72,0-5.08S221.65,328.68,217,330.94Z" transform="translate(-16.11 -19.02)"/><polyline class="cls-2" points="210.16 320.83 211.91 320.19 214.46 321.58 214.79 325.51 214.05 326.52 211.41 324.95 210.16 320.57"/><polygon class="cls-2" points="289.94 267.26 285.93 271.68 286.3 273.78 290.45 272.12 291.93 269.46 289.94 267.26"/><path class="cls-2" d="M298,297.78s4.39,4.92-3.28,6C294.73,303.82,290.76,302.36,298,297.78Z" transform="translate(-16.11 -19.02)"/><path class="cls-2" d="M285.62,313.32s-.72-2.43,4-5.54c0,0,4.91,2.69-1.74,6.28Z" transform="translate(-16.11 -19.02)"/><path class="cls-2" d="M283.1,319s3.37,3.41-2.55,5.62c0,0-4.89.84-.32-4.07C280.23,320.55,282,317.65,283.1,319Z" transform="translate(-16.11 -19.02)"/><path class="cls-2" d="M274.47,329.6s4.3,1.61-.65,5.51C273.82,335.11,266.38,337,274.47,329.6Z" transform="translate(-16.11 -19.02)"/><polygon class="cls-2" points="251.59 319.77 253.34 322.43 250.8 325.41 248.58 325.76 247.72 324.48 251.59 319.77"/><path class="cls-7" d="M192.82,299.27l-.7.42s1.31,3.69,1.5,4,.81,2,1.21,1.84a9.23,9.23,0,0,1,1.42-.14l1.16-3.19.78.7,1.7-1.38a27,27,0,0,1,.79,3.19,11.43,11.43,0,0,1-1.05,2.19c-.14.16-3.23,1.43-3.23,1.43l-2.15-.1-4.73-10.31,3.5-2.19s1.3,2.58,1.3,2.72" transform="translate(-16.11 -19.02)"/><line class="cls-7" x1="187.31" y1="299.8" x2="190.69" y2="299.45"/><path class="cls-7" d="M260.39,369.58" transform="translate(-16.11 -19.02)"/><path class="cls-7" d="M239.81,360" transform="translate(-16.11 -19.02)"/><polygon class="cls-2" points="169.44 376.36 288.47 376.36 276.78 299.98 259.43 302.73 178.27 305.17 169.44 376.36"/></g><g id="leaf"><path class="cls-8" d="M272.58,77.93" transform="translate(-16.11 -19.02)"/><path class="cls-9" d="M285.08,177.43" transform="translate(-16.11 -19.02)"/><path class="cls-10" d="M304.58,192.93s4.34-37.39-30.52-115.72a2.55,2.55,0,0,0-4.11-.79c-10,9.79-60.23,59.37-65.37,106.51a62.24,62.24,0,0,0-23,2c-1.83.35-1.41,4.23-2,6-3.05,9.15-11.71,37.16,20,43,0,0,30,4,35-33h5s5,38,28,38c0,0,38,5,44-30l9-1v-5Z" transform="translate(-16.11 -19.02)"/><path class="cls-11" d="M187.58,182.93" transform="translate(-16.11 -19.02)"/><path class="cls-10" d="M429.58,244.93" transform="translate(-16.11 -19.02)"/><path class="cls-10" d="M204.58,182.93s24.53,6,29,6c5,0,44-9,71,4" transform="translate(-16.11 -19.02)"/><path class="cls-12" d="M298.13,144.62" transform="translate(-16.11 -19.02)"/><path class="cls-12" d="M223.08,136.43" transform="translate(-16.11 -19.02)"/><path class="cls-12" d="M224.08,134.43" transform="translate(-16.11 -19.02)"/><path class="cls-9" d="M226.08,134.43" transform="translate(-16.11 -19.02)"/><path d="M225.42,137.61c-.92,2.75-1.65,5.36-2.25,8a69.15,69.15,0,0,0-1.37,7.86c-.12.66-.13,1.32-.2,2a18.84,18.84,0,0,0-.16,2c0,.66-.07,1.33-.13,2l0,2c-.09,1.36,0,2.71,0,4.1s.09,2.78,0,4.26a26.52,26.52,0,0,1-1.9-3.9,26,26,0,0,1-1.16-4.19c-.13-.71-.26-1.43-.35-2.16s-.1-1.45-.14-2.18a29.26,29.26,0,0,1,.17-4.39,27.43,27.43,0,0,1,2.4-8.43A19.19,19.19,0,0,1,225.42,137.61Z" transform="translate(-16.11 -19.02)"/><path class="cls-9" d="M246.08,160.43" transform="translate(-16.11 -19.02)"/><path class="cls-12" d="M297.08,145.43" transform="translate(-16.11 -19.02)"/><path d="M294,161.58a2.42,2.42,0,0,1,1.1-.61,1.72,1.72,0,0,1,.76,0,1.61,1.61,0,0,1,.91.52,2.67,2.67,0,0,1,.5,1.86,5.92,5.92,0,0,1-.28,1.37,11.66,11.66,0,0,1-2.34,3.95,15.49,15.49,0,0,1-3.27,2.84,12.41,12.41,0,0,1-4.12,1.8,15.26,15.26,0,0,1,1.9-4A29.07,29.07,0,0,1,291.6,166c.87-1,1.79-1.94,2.58-2.78l.52-.57c.14-.16.22-.2.38-.17a.1.1,0,0,0,.11-.14.67.67,0,0,0-.24-.29A4.26,4.26,0,0,0,294,161.58Z" transform="translate(-16.11 -19.02)"/><path d="M190.58,228.93c1.11,4,1.92,7.92,2.69,11.87s1.41,7.9,2,11.85l1.85,11.83,1.91,11.95a46.56,46.56,0,0,1-5-11.23,86.39,86.39,0,0,1-2.74-11.92,102.94,102.94,0,0,1-1.21-12.13A72.5,72.5,0,0,1,190.58,228.93Z" transform="translate(-16.11 -19.02)"/><path d="M307.51,220.15a104.17,104.17,0,0,1,1.77,16.32,121.86,121.86,0,0,1-.43,16.43,74.89,74.89,0,0,1-3.17,16.28,33.23,33.23,0,0,1-3.54,7.66,15.67,15.67,0,0,1-2.8,3.23,7.94,7.94,0,0,1-3.76,1.86c2.44-1.33,3.82-3.65,4.83-6a41,41,0,0,0,2.25-7.54,150.89,150.89,0,0,0,2.21-15.84c.52-5.34.89-10.71,1.3-16.11S306.93,225.61,307.51,220.15Z" transform="translate(-16.11 -19.02)"/><path d="M193.58,252.93a70.69,70.69,0,0,0-2.53,12.75,57.81,57.81,0,0,0,0,12.68,54.06,54.06,0,0,0,1.11,6.18,51.55,51.55,0,0,0,1.92,5.95,52.62,52.62,0,0,0,6.11,11l-2.06,2a36,36,0,0,0-2.73-2.45,28.27,28.27,0,0,0-3-2.13,11.41,11.41,0,0,0-3.34-1.38,4.32,4.32,0,0,0-3.49.7,4.4,4.4,0,0,1,3.56-1.65,10.87,10.87,0,0,1,4,.78,21.06,21.06,0,0,1,3.6,1.76,27.6,27.6,0,0,1,3.33,2.27l-2,1.95A41.16,41.16,0,0,1,190.48,292a43.26,43.26,0,0,1-2.21-6.5,45.82,45.82,0,0,1-1.06-6.77,44.57,44.57,0,0,1,1.17-13.5A40.08,40.08,0,0,1,193.58,252.93Z" transform="translate(-16.11 -19.02)"/><path d="M306,260.14a19.29,19.29,0,0,1,3.16,5.94,40,40,0,0,1,1.68,6.54,58.18,58.18,0,0,1,.75,6.7c0,1.12.08,2.24.09,3.36l-.07,3.35-3.83-.82a79.66,79.66,0,0,1,3.43-7.5,65.09,65.09,0,0,1,4.25-7.06,38.59,38.59,0,0,1,5.39-6.33,20.19,20.19,0,0,1,3.36-2.52,9.54,9.54,0,0,1,3.92-1.37,16.45,16.45,0,0,0-5.73,5.29,62.39,62.39,0,0,0-4.14,6.67c-1.27,2.31-2.43,4.67-3.57,7.05s-2.23,4.82-3.21,7.21L307,297.43l.62-11.6.17-3.23.11-3.22c0-2.15.05-4.3,0-6.44,0-1.08-.1-2.15-.16-3.22s-.21-2.14-.33-3.22A29.57,29.57,0,0,0,306,260.14Z" transform="translate(-16.11 -19.02)"/><path d="M327.08,278.43a39.71,39.71,0,0,1-.24-9,53.34,53.34,0,0,1,1.48-8.93,54,54,0,0,1,7.27-16.68,52.51,52.51,0,0,1,12.46-13.28,51.72,51.72,0,0,1,16-8.12A105.15,105.15,0,0,0,350,233,70.51,70.51,0,0,0,338.93,246a74.35,74.35,0,0,0-7.64,15.39,84.44,84.44,0,0,0-2.52,8.34A79.72,79.72,0,0,0,327.08,278.43Z" transform="translate(-16.11 -19.02)"/><path class="cls-9" d="M360.08,237.43" transform="translate(-16.11 -19.02)"/><path d="M357.88,240.41a34.53,34.53,0,0,1,.75-5.37,50.13,50.13,0,0,1,1.4-5.25,66.62,66.62,0,0,1,4.17-10,83.54,83.54,0,0,1,5.63-9.34,92.75,92.75,0,0,1,6.81-8.52,103.88,103.88,0,0,1,16.21-14.52,127.48,127.48,0,0,1,18.67-11l2.93-1.44-1.25,2.93L410,185.52c-1.1,2.54-2.16,5.1-3.21,7.67s-2.06,5.14-3.08,7.71-2,5.17-3,7.76l-1.21-.36A42.51,42.51,0,0,1,404,197.81a64.61,64.61,0,0,1,6.53-9.31,85.22,85.22,0,0,1,16.84-15.28,126.84,126.84,0,0,1,19.86-11.06c1.73-.76,3.48-1.49,5.22-2.23l5.3-2.05,5.37-1.84,5.41-1.66,4.06-1.25-1.44,4c-2.16,6-4.57,11.92-7.08,17.79s-5.25,11.63-8.24,17.28a135.38,135.38,0,0,1-10,16.39,51,51,0,0,1-6.29,7.33,24.62,24.62,0,0,1-3.82,3,11,11,0,0,1-4.56,1.7l-.06-.4a10.68,10.68,0,0,0,4.11-2,24.17,24.17,0,0,0,3.38-3.18,62.65,62.65,0,0,0,5.52-7.57,158.47,158.47,0,0,0,8.82-16.66q4-8.57,7.48-17.37c2.37-5.84,4.6-11.77,6.7-17.68l2.62,2.77-5.31,1.61-5.25,1.77-5.21,1.88-5.14,2.06a132.28,132.28,0,0,0-19.56,10.24,91,91,0,0,0-17.09,13.89,64.19,64.19,0,0,0-6.81,8.69,44.68,44.68,0,0,0-2.69,4.83,27.44,27.44,0,0,0-1.92,5.1l-1.21-.36c1-2.58,2.05-5.15,3-7.74s2-5.18,2.91-7.79,1.89-5.2,2.8-7.82L411,177l1.68,1.49A165.86,165.86,0,0,0,395,190.23a120.75,120.75,0,0,0-15.84,13.94,87.38,87.38,0,0,0-6.87,8,85.85,85.85,0,0,0-5.94,8.72,75.4,75.4,0,0,0-4.8,9.44,52.64,52.64,0,0,0-3.22,10.11Z" transform="translate(-16.11 -19.02)"/><path d="M442.58,210.93a36,36,0,0,1-.28,9.49,57.28,57.28,0,0,1-2.2,9.29,76.45,76.45,0,0,1-8.18,17.23l-2.65,4c-.93,1.29-1.93,2.52-2.9,3.78a46.38,46.38,0,0,1-3.06,3.64q-1.59,1.77-3.23,3.48c-2.18,2.29-4.61,4.34-6.93,6.46-2.48,2-5,3.87-7.57,5.66,2-2.46,4.13-4.74,6.2-7.06l3-3.57c1-1.21,2.07-2.3,3-3.56,1.85-2.48,3.89-4.79,5.61-7.35.88-1.26,1.83-2.47,2.68-3.74l2.51-3.85a120.75,120.75,0,0,0,8.65-16.18c.56-1.42,1.21-2.82,1.71-4.27l.8-2.17c.26-.72.45-1.46.7-2.2A58.24,58.24,0,0,0,442.58,210.93Z" transform="translate(-16.11 -19.02)"/><path d="M366.08,321.43c5.51-4.27,11.12-8.3,16.66-12.41s11-8.25,16.29-12.61c2.59-2.22,5.26-4.36,7.72-6.71a95.33,95.33,0,0,0,7.15-7.21l1.64-1.92,1.54-2c.46-.69,1-1.36,1.4-2.07s.87-1.41,1.27-2.13a19.17,19.17,0,0,0,1.75-4.56,9.56,9.56,0,0,0,.22-2.38,5.7,5.7,0,0,0-.5-2.23l0,0c.13.11.07,0,.08.06l-.05,0-.14,0-.33-.07a5.93,5.93,0,0,0-.72-.1c-.49-.05-1-.08-1.49-.1-1,0-2,0-3-.05q1.49-.27,3-.45c.51-.06,1-.11,1.53-.13q.39,0,.78,0l.42,0,.22,0,.13,0c.08,0,.07,0,.25.14h0l0,0a5.83,5.83,0,0,1,1.16,2.63,11.46,11.46,0,0,1,.16,2.8A18.24,18.24,0,0,1,422,275.4a38.9,38.9,0,0,1-5.45,9.24,94.74,94.74,0,0,1-15,14.84,164.05,164.05,0,0,1-17.1,12A177.21,177.21,0,0,1,366.08,321.43Z" transform="translate(-16.11 -19.02)"/><path d="M385.58,308.93a188.13,188.13,0,0,1-19.23,22.51c-3.46,3.53-7.06,6.92-10.74,10.24-1.81,1.69-3.72,3.26-5.62,4.85s-3.77,3.21-5.74,4.7a200.29,200.29,0,0,1-24.6,16.64c-2.18,1.19-4.34,2.39-6.53,3.55-1.08.61-2.23,1.09-3.34,1.62l-3.38,1.56L303,376.12c-1.13.49-2.31.9-3.46,1.33-2.33.85-4.65,1.69-7,2.48,2.17-1.2,4.34-2.35,6.51-3.49,1.08-.59,2.2-1.1,3.25-1.72l3.17-1.87c2.11-1.25,4.27-2.39,6.33-3.71s4.13-2.62,6.19-3.93l1.54-1,1.51-1.05,3-2.06c2-1.38,4-2.72,6-4.21L336,352.6l5.77-4.51c2-1.45,3.82-3,5.72-4.57l2.84-2.32,2.79-2.37c3.77-3.11,7.39-6.41,11.07-9.63Q375.11,319.35,385.58,308.93Z" transform="translate(-16.11 -19.02)"/><path class="cls-12" d="M347.08,354.43" transform="translate(-16.11 -19.02)"/><path d="M347.08,354.43a15.25,15.25,0,0,1,.93-4.6c.29-.73.58-1.47.92-2.19l1.12-2.11a34.22,34.22,0,0,1,6.1-7.31l1.77-1.61c.6-.52,1.26-.95,1.9-1.43a34.43,34.43,0,0,1,3.94-2.66c1.37-.78,2.73-1.62,4.14-2.33l4.3-1.95c1.42-.69,2.94-1.11,4.41-1.66s3-1.05,4.46-1.46l4.55-1.12a42.16,42.16,0,0,1,4.57-1c3.08-.46,6.14-1,9.23-1.24s6.2-.37,9.29-.37c-3,.89-6,1.59-9,2.3-1.5.3-3,.79-4.44,1.18s-2.94.78-4.41,1.17-2.91.89-4.36,1.32l-4.34,1.34c-1.44.47-2.83,1-4.25,1.56s-2.86,1-4.2,1.63l-4.12,1.81c-1.36.61-2.63,1.38-4,2.05a42.09,42.09,0,0,0-3.84,2.27c-.62.41-1.27.78-1.88,1.21l-1.78,1.32c-.58.46-1.23.86-1.76,1.37s-1.09,1-1.65,1.49c-.28.25-.58.48-.84.75l-.75.81c-.5.55-1,1.07-1.51,1.65A23.52,23.52,0,0,0,347.08,354.43Z" transform="translate(-16.11 -19.02)"/><path d="M408.9,321.49a48.59,48.59,0,0,1-1.16,5.19,37.63,37.63,0,0,1-1.82,5.05c-.74,1.64-1.31,3.54-2.89,4.83a7.39,7.39,0,0,1-2.75,1.54,3.54,3.54,0,0,1-3.23-.47l.06-.4a4.71,4.71,0,0,0,1.75-1.58c.42-.57.81-1.17,1.22-1.79a13.2,13.2,0,0,1,1.44-1.82,15.46,15.46,0,0,0,1.61-1.88q.74-1,1.41-2.1c.47-.71.92-1.44,1.36-2.18.93-1.46,1.76-3,2.62-4.51Z" transform="translate(-16.11 -19.02)"/><path class="cls-9" d="M405.58,329.52" transform="translate(-16.11 -19.02)"/><path d="M408.71,370.79c6.17-.5,12.31-1,18.41-1.76s12.14-1.69,18.08-3a102.76,102.76,0,0,0,17.27-5.28,59.33,59.33,0,0,0,7.86-4,31.44,31.44,0,0,0,3.48-2.51c.54-.45,1.05-.92,1.52-1.39.23-.25.46-.49.67-.73s.19-.24.29-.35l.17-.24.76,3.37a200.46,200.46,0,0,0-18.11-10.6c-1.53-.84-3.12-1.56-4.68-2.34s-3.17-1.44-4.75-2.17c-3.22-1.32-6.46-2.6-9.76-3.66-1.64-.58-3.32-1-5-1.49s-3.37-.83-5.07-1.14a59.43,59.43,0,0,0-10.31-1.18,44,44,0,0,0-10.35.84,30.36,30.36,0,0,0-5,1.43,20.21,20.21,0,0,0-4.71,2.37,25.2,25.2,0,0,1,9.37-5.18,43.4,43.4,0,0,1,10.68-2A67.43,67.43,0,0,1,441,332.29a111.91,111.91,0,0,1,20.22,7.7,181.41,181.41,0,0,1,18.68,10.73l2.06,1.36-1.3,2c-.23.35-.34.48-.5.69s-.3.38-.45.54c-.3.35-.6.66-.91,1-.62.61-1.25,1.18-1.9,1.71a38,38,0,0,1-4.05,2.85,51.13,51.13,0,0,1-8.69,4.21,89.36,89.36,0,0,1-18.3,4.71,137.24,137.24,0,0,1-18.61,1.62A171.73,171.73,0,0,1,408.71,370.79Z" transform="translate(-16.11 -19.02)"/><path class="cls-9" d="M448,395.38" transform="translate(-16.11 -19.02)"/><path d="M420.86,370.79a48,48,0,0,1-7.42,5.63,63.48,63.48,0,0,1-35.89,9.74,57.78,57.78,0,0,1-9.38-1.14,52.58,52.58,0,0,1-17.33-6.87,100.52,100.52,0,0,0,17.81,3.79c3,.28,6,.43,9,.43a88.45,88.45,0,0,0,8.92-.58A94.84,94.84,0,0,0,404,377.86,113.31,113.31,0,0,0,420.86,370.79Z" transform="translate(-16.11 -19.02)"/><path d="M201.42,329.45q-5.59-11.79-11.32-23.39l-2.92-5.78c-1-1.92-1.93-3.85-3-5.74s-2-3.84-3-5.73l-3.11-5.65c-1-1.89-2.13-3.75-3.18-5.62-.54-.93-1.06-1.88-1.61-2.8s-1.14-1.82-1.69-2.75c-1.12-1.82-2.15-3.72-3.36-5.5s-2.34-3.6-3.49-5.42a221.74,221.74,0,0,0-15.61-20.64,109.29,109.29,0,0,1,18.15,18.82,191.06,191.06,0,0,1,14.28,22,241.57,241.57,0,0,1,11.34,23.56A187.21,187.21,0,0,1,201.42,329.45Z" transform="translate(-16.11 -19.02)"/><path d="M188.06,357.16a114.17,114.17,0,0,1-29.13-10.22,71.5,71.5,0,0,1-12.9-8.66,50.56,50.56,0,0,1-5.54-5.51,30.15,30.15,0,0,1-4.44-6.58l-.49-1.05,1.21,0L148.1,325l-.27,1.77A133.92,133.92,0,0,1,130.09,320a135.41,135.41,0,0,1-16.63-9.21,134,134,0,0,1-15.22-11.42q-3.6-3.12-7-6.52a83.67,83.67,0,0,1-6.39-7.2l-1.69-2.17,2.8-.15,18.38-1-.21,3.15c-7.93-1.39-15.1-5.2-21.41-9.77A113.87,113.87,0,0,1,65.55,260a193.79,193.79,0,0,1-14.46-18.16,213.43,213.43,0,0,1-12.4-19.62l-2.48-4.46L41,219.47a36.25,36.25,0,0,1,4.88,2.23c1.55.82,3,1.7,4.5,2.61s2.91,1.84,4.33,2.8,2.82,1.93,4.23,3l-2.27,3.18A49.52,49.52,0,0,1,44.48,220.4,107.7,107.7,0,0,1,36,205.18c-1.22-2.61-2.37-5.25-3.48-7.88l-1.68-3.92c-.56-1.28-1.13-2.58-1.74-3.67-.17-.3-.28-.45-.47-.74l-.62-.89-1.22-1.79-2.38-3.59c-1.57-2.4-3.11-4.8-4.64-7.22l-2.66-4.19,4.78,1.24c5.23,1.36,10.47,2.69,15.67,4.22,2.61.71,5.19,1.54,7.78,2.34s5.15,1.7,7.71,2.58A151.88,151.88,0,0,1,68.2,187.8a75.58,75.58,0,0,1,7.29,3.93l1.76,1.15c.58.41,1.14.85,1.71,1.28s1.12.92,1.65,1.47a11.3,11.3,0,0,1,.8.87c.13.17.26.32.39.5l.2.32.1.16.15.29L79,199.06l-7.22-18.71-1.23-3.18,3.2,1.1A114.58,114.58,0,0,1,98.94,190a64.14,64.14,0,0,1,10.91,8.77,42,42,0,0,1,4.52,5.42,28.32,28.32,0,0,1,1.87,3c.28.53.55,1.07.79,1.62a12,12,0,0,1,.65,1.79l-2,.63-3.19-9-3.16-9-.55-1.59,1.58.53a48,48,0,0,1,17.19,10.37A71.28,71.28,0,0,1,140,218.13a105.8,105.8,0,0,1,8.65,18,123.31,123.31,0,0,1,5.51,19.14,123.06,123.06,0,0,0-6-19,111.6,111.6,0,0,0-8.95-17.69,70.58,70.58,0,0,0-12.61-15.14,46.56,46.56,0,0,0-16.85-9.75l1-1.06,3.43,8.95,3.39,9-2,.63a17.16,17.16,0,0,0-1.3-2.88,27.21,27.21,0,0,0-1.79-2.77,39.38,39.38,0,0,0-4.37-5,61.19,61.19,0,0,0-10.63-8.22,111.48,111.48,0,0,0-24.73-11l2-2.08,7.5,18.61L79,199.09l0,.07,0,0L79,199l-.23-.29a8.09,8.09,0,0,0-.58-.62,18,18,0,0,0-1.37-1.19c-.51-.37-1-.76-1.53-1.12l-1.63-1.05a75.32,75.32,0,0,0-7-3.66,150,150,0,0,0-14.85-5.84c-2.53-.84-5.05-1.72-7.62-2.48s-5.11-1.59-7.7-2.29c-5.14-1.49-10.35-2.8-15.54-4.13l2.12-3c1.53,2.39,3.08,4.79,4.64,7.16l4.83,7.2c.78,1.4,1.36,2.72,2,4l1.7,3.94c1.12,2.62,2.24,5.21,3.43,7.77a104.89,104.89,0,0,0,8.11,14.67A45.86,45.86,0,0,0,58.91,230l-2.27,3.18c-1.32-1-2.7-1.94-4.08-2.88s-2.78-1.85-4.19-2.73-2.84-1.72-4.28-2.49a33.67,33.67,0,0,0-4.35-2l2.35-2.74a225.16,225.16,0,0,0,12.08,19.29,190.24,190.24,0,0,0,14,17.91,110.9,110.9,0,0,0,16.56,15.37c6,4.41,12.73,8.06,20,9.43l13.79,2.6-14,.55-18.39.71,1.11-2.33a82.12,82.12,0,0,0,6.05,7q3.22,3.36,6.71,6.47a132,132,0,0,0,14.78,11.42A135.51,135.51,0,0,0,131,318.05a147.37,147.37,0,0,0,17.36,7l5.54,1.83-5.81-.07-11.33-.13.73-1.06a29.27,29.27,0,0,0,4,6.28,51.63,51.63,0,0,0,5.28,5.49,70.74,70.74,0,0,0,12.52,8.81,105.8,105.8,0,0,0,14,6.42A137.2,137.2,0,0,0,188.06,357.16Z" transform="translate(-16.11 -19.02)"/><path class="cls-9" d="M102.61,297.54" transform="translate(-16.11 -19.02)"/><path class="cls-9" d="M157.58,323.09" transform="translate(-16.11 -19.02)"/><path d="M113.26,365.19a71.36,71.36,0,0,1-29.44,7.32,68.73,68.73,0,0,1-30-6.38,84.75,84.75,0,0,1-25.2-17.7c-.46-.46-.9-.93-1.35-1.42l-.33-.37-.16-.18-.09-.1,0,0s0,0-.15-.2a2.13,2.13,0,0,1,.15-2.62,1.94,1.94,0,0,1,.31-.29l.05,0,.41-.29,1.61-1.16c.54-.38,1.11-.71,1.67-1.07a45.17,45.17,0,0,1,7.07-3.51,66.3,66.3,0,0,1,15.09-3.93c2.56-.38,5.14-.62,7.71-.8s5.15-.18,7.72-.15a137.78,137.78,0,0,1,15.35,1.14q3.81.5,7.59,1.19c1.26.24,2.52.49,3.78.77l1.88.44-.14,0a1.45,1.45,0,0,0-.36,0,1.78,1.78,0,0,0-.71.25,1.56,1.56,0,0,0-.71,1.16,1.65,1.65,0,0,0,.08.73,1.51,1.51,0,0,0,.16.31c.07.12.13.17.09.12l-.15-.18-.59-.74-4.73-5.94-2.36-3a2.17,2.17,0,0,1-.23-.32,2,2,0,0,1,.34-2.45,2.14,2.14,0,0,1,.74-.45l.11,0,.24-.07.92-.3,1.86-.59a56.65,56.65,0,0,1,7.63-1.65,47.45,47.45,0,0,1,7.81-.51,41.69,41.69,0,0,1,15.29,3.1,44.39,44.39,0,0,1,13,8.34,50,50,0,0,1,5.26,5.63c.8,1,1.57,2,2.29,3.09.37.53.72,1.06,1.06,1.61l.5.82s.11.18.09.16a.32.32,0,0,0-.23-.11.32.32,0,0,0-.2.1.3.3,0,0,0-.05.23l.05.14-4.59-9-.57-1.12-.28-.57a3.06,3.06,0,0,1-.15-.31.37.37,0,0,1,.41-.53,4.41,4.41,0,0,1,1.24.52c.38.21.74.42,1.1.64a17.41,17.41,0,0,0,4.47,2.26A17.23,17.23,0,0,1,141,335.2c-.37-.2-.74-.4-1.11-.58a4.43,4.43,0,0,0-1.09-.4s0,0,.07-.06,0-.11.05-.09a1.75,1.75,0,0,0,.14.25l.31.54L140,336l5,8.78,0,.05,0,.09a.8.8,0,0,1-1.41.67l-.17-.24-.53-.77c-.36-.51-.73-1-1.11-1.51-.76-1-1.56-1.95-2.39-2.87A48.61,48.61,0,0,0,134,335a43.35,43.35,0,0,0-12.71-7.41,40.6,40.6,0,0,0-14.38-2.43,51.93,51.93,0,0,0-14.44,2.41l-1.75.6-.87.29-.22.08-.11,0a1.45,1.45,0,0,0,.53-.33,1.47,1.47,0,0,0,.44-1.15,1.52,1.52,0,0,0-.19-.65c-.19-.28-.1-.14-.08-.13l2.41,2.93,4.83,5.85.6.73.15.18a.92.92,0,0,1,.16.22,1.83,1.83,0,0,1,.21.42,2.23,2.23,0,0,1,.12,1,2.13,2.13,0,0,1-1.89,1.88,2.43,2.43,0,0,1-.47,0l-.27,0L94.26,339c-1.21-.25-2.44-.47-3.67-.68q-3.68-.66-7.4-1.12a116,116,0,0,0-29.73-.12,62.35,62.35,0,0,0-14.22,3.61,43.9,43.9,0,0,0-6.54,3.18c-.51.32-1,.61-1.54.95l-1.48,1-.37.25,0,0a2.09,2.09,0,0,0,.23-.22,1.56,1.56,0,0,0,.33-.62A1.6,1.6,0,0,0,29.6,344l-.08-.1,0,0,.07.08.14.18.3.34c.4.45.82.91,1.24,1.35a85.78,85.78,0,0,0,23.83,17.53,73.56,73.56,0,0,0,13.93,5.17,67.38,67.38,0,0,0,29.69.85A85.3,85.3,0,0,0,113.26,365.19Z" transform="translate(-16.11 -19.02)"/><path d="M94.37,370.79A50.66,50.66,0,0,0,129,383.49a69.67,69.67,0,0,0,18.52-3,146.28,146.28,0,0,0,18-6.82,66,66,0,0,1-17,9.77l-2.32.89c-.77.29-1.58.49-2.37.74-1.58.51-3.2.88-4.83,1.26a51.08,51.08,0,0,1-10,1.12,44.23,44.23,0,0,1-19.56-4.14A37.11,37.11,0,0,1,94.37,370.79Z" transform="translate(-16.11 -19.02)"/><path d="M164.4,374.37a13,13,0,0,1-1.14,3,19.35,19.35,0,0,1-1.62,2.58,21.85,21.85,0,0,1-4.16,4.27l-.22.19a.25.25,0,0,0-.31,0,.58.58,0,0,0-.22.57l.14.16a48.52,48.52,0,0,1,1.84,4.66,49.34,49.34,0,0,1-3.52-3.57l.14.16a2.77,2.77,0,0,1-1.25-2.18,3.2,3.2,0,0,1,1.08-2.59l-.21.2a21.6,21.6,0,0,1,4-4.41,19.4,19.4,0,0,1,2.48-1.76A12.81,12.81,0,0,1,164.4,374.37Z" transform="translate(-16.11 -19.02)"/><path d="M218.45,398.74a81.46,81.46,0,0,0-7.73-3.38q-3.93-1.55-8-2.76a94.24,94.24,0,0,0-16.39-3.44,72.32,72.32,0,0,0-8.31-.55,63.37,63.37,0,0,0-8.27.42,55.48,55.48,0,0,0-15.88,4.11l.08-3,12.29,5.68-1.52,3.2a24.58,24.58,0,0,0-2.6-.91c-.92-.27-1.85-.52-2.79-.72s-1.88-.39-2.84-.53-1.92-.27-2.89-.36a64.64,64.64,0,0,0-11.64,0c-1.93.24-3.88.4-5.79.8-1,.19-1.93.31-2.88.55l-2.85.7c-.95.21-1.89.5-2.82.8l-2.81.87c-1.84.65-3.67,1.38-5.51,2.05l.76-3.13,4.37,5.18,2.06,2.44-3.14.76a36.9,36.9,0,0,0-3.86,1.21c-1.3.48-2.59,1-3.86,1.59a64.49,64.49,0,0,0-7.35,4A65.42,65.42,0,0,0,95.39,425,64.22,64.22,0,0,0,90,431.45c-.85,1.12-1.61,2.31-2.41,3.46s-1.51,2.38-2.18,3.62a84.32,84.32,0,0,0-6.77,15.55l-1.45-1.65a72.7,72.7,0,0,0,11-2.85,76.47,76.47,0,0,0,10.55-4.49,53.48,53.48,0,0,0,9.53-6.4,43.75,43.75,0,0,0,7.68-8.6,41,41,0,0,1-7.13,9.22,55.58,55.58,0,0,1-9.34,7.08A70.32,70.32,0,0,1,89,451.56,73.07,73.07,0,0,1,77.63,455l-2,.43.58-2.08A83.53,83.53,0,0,1,82.67,437a69.2,69.2,0,0,1,10.11-14.46,67.06,67.06,0,0,1,13.48-11.49,64.78,64.78,0,0,1,7.79-4.3c1.35-.62,2.72-1.21,4.12-1.73a40,40,0,0,1,4.37-1.39l-1.07,3.2-4.41-5.15-1.83-2.15,2.59-1c1.92-.72,3.82-1.48,5.76-2.15l3-.9c1-.3,2-.6,3-.82l3-.71c1-.24,2-.37,3-.56,2-.41,4.08-.58,6.13-.81a64.14,64.14,0,0,1,12.39.17c1,.13,2.05.25,3.08.45s2,.39,3.05.63a35,35,0,0,1,6.08,2l-1.51,3.2-12.17-5.94-3.35-1.64,3.43-1.33a58.83,58.83,0,0,1,16.86-3.85,65.13,65.13,0,0,1,8.61-.09,75.73,75.73,0,0,1,8.52.92,91.9,91.9,0,0,1,16.46,4.42A87.5,87.5,0,0,1,218.45,398.74Z" transform="translate(-16.11 -19.02)"/><path d="M108.14,438.94c4.51-.77,8.78-1.45,13-2.21s8.24-1.68,12.19-2.84a83.22,83.22,0,0,0,11.58-4.24,108.06,108.06,0,0,0,11.35-6.27l.31.26a40.8,40.8,0,0,1-10,8.71,43.38,43.38,0,0,1-5.88,3.1,48.3,48.3,0,0,1-6.26,2.28,61.32,61.32,0,0,1-13.09,2.18,59.36,59.36,0,0,1-13.25-.58Z" transform="translate(-16.11 -19.02)"/><path d="M142.19,433.19a79.35,79.35,0,0,0,10.34.25c3.44-.11,6.88-.37,10.29-.81a102.85,102.85,0,0,0,20-4.65c3.23-1.12,6.4-2.4,9.51-3.81a98.6,98.6,0,0,0,9-4.83,93.18,93.18,0,0,0,16-12.52l1-1,1.09,1a17.55,17.55,0,0,0,1.93,1.4,22.33,22.33,0,0,0,2.2,1.21,30.83,30.83,0,0,0,4.73,1.83,35.48,35.48,0,0,0,5,1c.84.14,1.7.16,2.55.26s1.71.06,2.57.09l1.69.07v1.64l.07,22.38c0,7.48,0,14.95-.13,22.4l0,2.79,0,1.4V464c0,.23-.18.33-.26.5a20.74,20.74,0,0,0-1.86,4.59c-.52,1.7-1,3.47-1.6,5.29l-.24.69-.05.16,0,.05s0,.11,0,.17a4.65,4.65,0,0,0-.08,1,5.46,5.46,0,0,0,.33,1.95,2.62,2.62,0,0,0,.38.67l.11.13.2.2a5.11,5.11,0,0,0,.42.39,6.65,6.65,0,0,0,1.75,1.16,9.73,9.73,0,0,0,4.48.46c.87-.05,1.87-.09,2.76-.12s1.78-.08,2.67-.13c1.79-.12,3.57-.28,5.35-.48l1.31.31-.17-.1-.07,0-.11,0h-.2a.53.53,0,0,0-.22.06,2.27,2.27,0,0,0,.31-.39,8.74,8.74,0,0,0,.79-2.15,33,33,0,0,0,.81-5.32,109.93,109.93,0,0,0,.21-11.21c-.22-7.54-.78-15.12-1.53-22.68q-.54-5.67-1.22-11.33l-.68-5.66-.35-2.84-.17-1.41-.09-.72a6.05,6.05,0,0,1-.05-1,4.85,4.85,0,0,1,.51-2.06,4.71,4.71,0,0,1,1.36-1.62,7.85,7.85,0,0,1,3.28-1.37,23.38,23.38,0,0,1,6.11-.2A66.56,66.56,0,0,1,275.7,413l.29.08.23.2A73.86,73.86,0,0,0,290.53,423a69.72,69.72,0,0,0,33.64,7.48,77.68,77.68,0,0,0,8.73-.74,56,56,0,0,0,8.58-1.85,63.77,63.77,0,0,1-17.27,3.47,71.9,71.9,0,0,1-17.69-.95,67.7,67.7,0,0,1-17-5.41,76.29,76.29,0,0,1-15.1-9.57l.53.28a62.71,62.71,0,0,0-11-1.77,20.24,20.24,0,0,0-5.27.27,4.86,4.86,0,0,0-2,.82,1.5,1.5,0,0,0-.59,1.25l1.52,11.1q.75,5.68,1.38,11.38c.83,7.61,1.55,15.24,1.8,22.94a113.31,113.31,0,0,1-.17,11.64,37.6,37.6,0,0,1-.89,6,12.29,12.29,0,0,1-1.22,3.18,5.16,5.16,0,0,1-1.58,1.71,3.44,3.44,0,0,1-1.56.53,3.18,3.18,0,0,1-.92,0,2.54,2.54,0,0,1-.45-.13,1.46,1.46,0,0,1-.23-.1,2.08,2.08,0,0,1-.33-.17l1.31.31c-1.84.21-3.69.39-5.55.51-.92.07-1.85.12-2.78.15s-1.76.08-2.71.14a24.73,24.73,0,0,1-3,0,10.37,10.37,0,0,1-3.29-.81,10.48,10.48,0,0,1-2.79-1.84c-.21-.17-.38-.36-.58-.54l-.28-.28-.33-.39a6.5,6.5,0,0,1-1-1.7,9.41,9.41,0,0,1-.6-3.41,8.29,8.29,0,0,1,.17-1.75c0-.17.07-.31.13-.5l.14-.44.22-.6c.55-1.63,1-3.39,1.58-5.18a24,24,0,0,1,2.3-5.49l.22-.34c.06-.11.2-.23.16-.34v-.67l0-1.34,0-2.68q-.12-10.71-.13-21.35l.07-21.38,1.7,1.71c-.93-.05-1.86-.07-2.79-.14s-1.85-.16-2.77-.33a39.57,39.57,0,0,1-5.46-1.25,34,34,0,0,1-5.2-2.13,26.08,26.08,0,0,1-2.45-1.43,18.26,18.26,0,0,1-2.36-1.8h2.08a90.34,90.34,0,0,1-16.87,12.5,95.31,95.31,0,0,1-9.38,4.68,96.42,96.42,0,0,1-9.84,3.58,103.85,103.85,0,0,1-20.47,3.88A89.9,89.9,0,0,1,142.19,433.19Z" transform="translate(-16.11 -19.02)"/><path class="cls-11" d="M366.08,384.27a7.57,7.57,0,0,1-6,3.09" transform="translate(-16.11 -19.02)"/><path d="M290.32,389.83a104,104,0,0,1,13.92-3.67,132,132,0,0,1,14.31-2,109.24,109.24,0,0,1,29,1.22,79.84,79.84,0,0,1,14.1,3.95,65.28,65.28,0,0,1,13,6.85,55.66,55.66,0,0,1,10.71,10,53.27,53.27,0,0,1,7.32,12.46,70.54,70.54,0,0,0-8.79-11.15,63.2,63.2,0,0,0-10.95-8.66,71.61,71.61,0,0,0-12.6-5.91,80.48,80.48,0,0,0-13.51-3.57,106.77,106.77,0,0,0-13.95-1.74c-4.69-.34-9.41-.36-14.14-.3s-9.46.37-14.19.82S295.05,389.09,290.32,389.83Z" transform="translate(-16.11 -19.02)"/><path d="M348.9,395.38a35.39,35.39,0,0,1,9.63-.8,44.25,44.25,0,0,1,9.61,1.46,36.16,36.16,0,0,1,9,3.83,24.45,24.45,0,0,1,7.15,6.58,61.65,61.65,0,0,0-8.24-4.5,74.73,74.73,0,0,0-8.71-3c-3-.79-6-1.45-9.08-2S352.09,395.86,348.9,395.38Z" transform="translate(-16.11 -19.02)"/><path d="M384.3,417.06a5.49,5.49,0,0,1,3.46.19,14.66,14.66,0,0,1,3.15,1.62,30.75,30.75,0,0,1,5.26,4.67,63.2,63.2,0,0,1,4.36,5.46c1.34,1.91,2.59,3.87,3.79,5.85l.94,1.55-1.7.73a18.52,18.52,0,0,1-2.49.86c-.81.21-1.61.4-2.41.55s-1.61.28-2.41.4-1.61.22-2.42.28a70.43,70.43,0,0,1-9.63.17l-4.78-.34-4.73-.63c-3.13-.54-6.28-1-9.35-1.81s-6.14-1.57-9.17-2.45c-1.52-.42-3-1-4.5-1.47s-3-1-4.47-1.56c-2.93-1.16-5.87-2.29-8.75-3.55s-5.73-2.61-8.51-4.07l9,2.65,9,2.53c6,1.56,12,3.13,18.13,4.26,3,.62,6.08,1.12,9.13,1.58l4.58.54,4.58.4c1.53,0,3.06.15,4.59.14s3,0,4.55-.1c.76,0,1.52-.08,2.26-.16s1.51-.15,2.24-.27,1.47-.24,2.19-.4,1.47-.36,2-.53l-.76,2.28c-1-2-2.1-4-3.25-5.92a62.12,62.12,0,0,0-3.66-5.66,32,32,0,0,0-4.38-5.05,13.12,13.12,0,0,0-2.68-1.95A5.15,5.15,0,0,0,384.3,417.06Z" transform="translate(-16.11 -19.02)"/><path class="cls-9" d="M248.37,99.47" transform="translate(-16.11 -19.02)"/><path d="M208.65,164.63a85.15,85.15,0,0,1-9.31-6.58c-1.48-1.21-2.93-2.47-4.34-3.8a12.47,12.47,0,0,1-1.91-2.2c-.58-.79-1.17-1.57-1.73-2.39a26.28,26.28,0,0,1-2.9-5.34,13.9,13.9,0,0,1-.82-3.2,8.7,8.7,0,0,1,.3-3.62,7.73,7.73,0,0,1,2-3.19,10.72,10.72,0,0,1,2.87-1.91,21.47,21.47,0,0,1,6-1.64l.35,0,.36.08c11.24,2.55,22.35,5.4,33.43,8.49s22.07,6.44,33,10.16a326.45,326.45,0,0,1,32.16,12.72c2.61,1.24,5.22,2.49,7.79,3.84q3.72,2.3,7.26,4.87c4.68,3.43,9.19,7.31,12.48,12.06a58.19,58.19,0,0,0-14-9.65c-2.5-1.33-5.07-2.53-7.65-3.69-1.27-.63-2.48-1.35-3.76-2s-2.54-1.24-3.83-1.84a319.89,319.89,0,0,0-31.76-12.55c-10.8-3.7-21.73-7-32.74-10.1s-22.1-5.92-33.21-8.44l.71,0a18,18,0,0,0-4.84,1.3,4.76,4.76,0,0,0-2.77,2.69,6.65,6.65,0,0,0,.45,4.18,22.55,22.55,0,0,0,2.47,4.52c.5.73,1,1.46,1.6,2.15a18.33,18.33,0,0,1,1.67,2.14c1,1.51,2.16,3,3.33,4.43C203.6,159,206.07,161.87,208.65,164.63Z" transform="translate(-16.11 -19.02)"/><path class="cls-13" d="M307.77,227.52" transform="translate(-16.11 -19.02)"/><path class="cls-10" d="M199.08,132.74l18.28-20.11,12.35-38.3c.07-2.9,42.13-14.19,86.07,22.83l-.79,33,.6,6.89c-.56,3.82,10.06,39.88,10.25,43.24.38,6.63-21.26,2.14-21.26,2.14" transform="translate(-16.11 -19.02)"/><path class="cls-12" d="M1256.42,742.35" transform="translate(-16.11 -19.02)"/><path class="cls-13" d="M268.35,176.16c-2.3-2.33-3.18-7.28,2.77-9.7,0,0,5,.66,2.49,8.4-1.06,3.31-3.55,3-5.26,1.3" transform="translate(-16.11 -19.02)"/><path class="cls-13" d="M276,179.09a435.87,435.87,0,0,1,48.44,19.34s5.72-4.93.93-7.41c-22.21-11.48-54.24-24.56-54.24-24.56l-3.36,2.32" transform="translate(-16.11 -19.02)"/><path class="cls-13" d="M270,177.24s2.11.59,6,1.85" transform="translate(-16.11 -19.02)"/><path class="cls-9" d="M370.16,191.13" transform="translate(-16.11 -19.02)"/><path class="cls-14" d="M267.86,169.77s1.75,2.17-.41,2.9" transform="translate(-16.11 -19.02)"/><path class="cls-14" d="M268.53,169.43a.66.66,0,0,0,1.06.34c.75-.54.64-.1.4.46s1.5-1.82,0-1.72" transform="translate(-16.11 -19.02)"/><path class="cls-14" d="M270.61,168.5" transform="translate(-16.11 -19.02)"/><path class="cls-14" d="M270.12,172s.51.8,0,.44S270.12,172,270.12,172Z" transform="translate(-16.11 -19.02)"/><path class="cls-14" d="M271.81,172.57s0,2,.39,1.19.9-.93.17-1.19S271.81,172.57,271.81,172.57Z" transform="translate(-16.11 -19.02)"/><path class="cls-14" d="M269.71,175.91c.28.2,2.36-1.11,2.32,0" transform="translate(-16.11 -19.02)"/><path class="cls-14" d="M270.87,175.61s.67,1.39.12,1.39" transform="translate(-16.11 -19.02)"/><path class="cls-14" d="M268.79,173.61l.78-.34s1,.68.78,1.26S269,174,269,174" transform="translate(-16.11 -19.02)"/><path class="cls-14" d="M271.21,171s.62,1.92,0,2.32-2.08-3-1.5-2.32.36,1.17,1.5,0" transform="translate(-16.11 -19.02)"/><path class="cls-14" d="M271.48,169.41l.32.17c.75.42,2.53,1.51,1.19,1.64C273,171.22,270.11,169.94,271.48,169.41Z" transform="translate(-16.11 -19.02)"/><path class="cls-14" d="M194.83,299.27" transform="translate(-16.11 -19.02)"/><text x="-16.11" y="-19.02"/><path class="cls-9" d="M188.83,301.13a13.67,13.67,0,0,0,4.94,6.81c2.76,2,7.61-.95,6.84-4.14-.68-2.8-2-5.78-4.67-7.49C192.86,294.31,187.68,297.84,188.83,301.13Z" transform="translate(-16.11 -19.02)"/><path class="cls-9" d="M192.12,299.69s1.37,5.87,3.67,5.84S197.71,296.52,192.12,299.69Z" transform="translate(-16.11 -19.02)"/><path class="cls-15" d="M197.57,311.55a13.77,13.77,0,0,0,4.94,6.81c2.77,2,7.61-.95,6.84-4.14-.68-2.8-2-5.78-4.66-7.49C201.61,304.73,196.43,308.26,197.57,311.55Z" transform="translate(-16.11 -19.02)"/><path class="cls-9" d="M200.86,310.11s1.38,5.87,3.68,5.84S206.45,306.94,200.86,310.11Z" transform="translate(-16.11 -19.02)"/><path class="cls-15" d="M205.83,322.11a13.39,13.39,0,0,0,4.81,6.63c2.69,1.92,7.41-.93,6.66-4-.66-2.73-2-5.63-4.54-7.3C209.76,315.47,204.72,318.9,205.83,322.11Z" transform="translate(-16.11 -19.02)"/><path class="cls-9" d="M209,320.7s1.33,5.72,3.57,5.69S214.47,317.62,209,320.7Z" transform="translate(-16.11 -19.02)"/><path class="cls-15" d="M213.83,332.34a13.35,13.35,0,0,0,4.81,6.63c2.69,1.93,7.41-.93,6.66-4-.66-2.72-2-5.63-4.54-7.29C217.76,325.7,212.72,329.14,213.83,332.34Z" transform="translate(-16.11 -19.02)"/><path class="cls-9" d="M217,330.94s1.34,5.71,3.58,5.69S222.47,327.85,217,330.94Z" transform="translate(-16.11 -19.02)"/><path class="cls-15" d="M223.06,341.26a13.46,13.46,0,0,0,4.81,6.63c2.69,1.92,7.41-.93,6.66-4-.66-2.73-2-5.63-4.54-7.3C227,334.62,222,338.05,223.06,341.26Z" transform="translate(-16.11 -19.02)"/><path class="cls-9" d="M226.27,339.85s1.33,5.72,3.58,5.69S231.71,336.76,226.27,339.85Z" transform="translate(-16.11 -19.02)"/><path class="cls-15" d="M303.47,283.79a13.75,13.75,0,0,0-4.44,7.15c-.78,3.3,3.77,6.68,6.43,4.76,2.33-1.69,4.58-4.06,5.16-7.15C311.31,284.94,306.08,281.48,303.47,283.79Z" transform="translate(-16.11 -19.02)"/><path class="cls-9" d="M306.05,286.29s-4.92,3.49-4,5.61S311.1,290.25,306.05,286.29Z" transform="translate(-16.11 -19.02)"/><path class="cls-15" d="M295.12,295.11a13.75,13.75,0,0,0-4.31,7.22c-.72,3.32,3.88,6.62,6.5,4.66,2.31-1.74,4.52-4.15,5.05-7.25C303,296.12,297.69,292.76,295.12,295.11Z" transform="translate(-16.11 -19.02)"/><path class="cls-9" d="M297.75,297.56s-4.86,3.58-3.92,5.69S302.86,301.44,297.75,297.56Z" transform="translate(-16.11 -19.02)"/><path class="cls-15" d="M287,305.33a13.78,13.78,0,0,0-4.31,7.23c-.72,3.32,3.89,6.61,6.51,4.65,2.3-1.73,4.51-4.15,5-7.24C294.89,306.35,289.61,303,287,305.33Z" transform="translate(-16.11 -19.02)"/><path class="cls-9" d="M289.66,307.78s-4.86,3.58-3.92,5.69S294.78,311.66,289.66,307.78Z" transform="translate(-16.11 -19.02)"/><path class="cls-15" d="M280,316.12a13.42,13.42,0,0,0-4.2,7c-.7,3.23,3.78,6.44,6.33,4.53,2.25-1.69,4.4-4,4.91-7.06C287.62,317.11,282.47,313.83,280,316.12Z" transform="translate(-16.11 -19.02)"/><path class="cls-9" d="M282.52,318.51S277.8,322,278.71,324,287.51,322.29,282.52,318.51Z" transform="translate(-16.11 -19.02)"/><path class="cls-15" d="M272.29,327.05a13.57,13.57,0,0,0-3.89,7c-.65,3.22,3.51,6.42,5.87,4.52a11.73,11.73,0,0,0,4.56-7C279.39,328,274.62,324.77,272.29,327.05Z" transform="translate(-16.11 -19.02)"/><path class="cls-9" d="M274.66,329.44s-4.38,3.47-3.54,5.51S279.28,333.2,274.66,329.44Z" transform="translate(-16.11 -19.02)"/><path class="cls-15" d="M265.33,336.41a13.58,13.58,0,0,0-3.89,7c-.66,3.22,3.5,6.43,5.87,4.52a11.68,11.68,0,0,0,4.55-7C272.42,337.39,267.65,334.12,265.33,336.41Z" transform="translate(-16.11 -19.02)"/><path class="cls-9" d="M267.7,338.79s-4.39,3.47-3.54,5.52S272.32,342.56,267.7,338.79Z" transform="translate(-16.11 -19.02)"/><path class="cls-9" d="M288.48,358.5" transform="translate(-16.11 -19.02)"/><path class="cls-5" d="M231.77,75.39c3.88-.91,42.93-14.41,81.55,22.71,11.53,11.07-16-14.92,0,.77l-.64,33.87L323,178.17S303.26,163,295.58,160.43,241.16,139.52,231.77,139l-13.29-3.48Z" transform="translate(-16.11 -19.02)"/><polygon class="cls-3" points="290.83 170.49 284.31 167.78 285.56 161.91 298.5 167.91 290.83 170.49"/><path class="cls-16" d="M200.86,310.11s6.66-2.75,4.46,5.84c0,0-2.67,1.83-4.46-5.84" transform="translate(-16.11 -19.02)"/><path class="cls-16" d="M209,320.7s6.38-2.76,4.15,5.69C213.19,326.39,210.05,326.21,209,320.7Z" transform="translate(-16.11 -19.02)"/><path class="cls-2" d="M217.14,331.06s3.41-1.83,4.5,1.41c0,0,.86,3.82-1.29,3.82C220.35,336.29,218.41,336.05,217.14,331.06Z" transform="translate(-16.11 -19.02)"/><path class="cls-2" d="M226.55,339.92s3.52-1.6,4.35,1.93-1.4,3.44-1.4,3.44-1-.21-2.95-5.37" transform="translate(-16.11 -19.02)"/><path class="cls-2" d="M306,286.68s-4.5,3.74-3.72,4.45c0,0,.12,1.22.9,1.1,0,0,3.5-.76,4.08-1.73a.49.49,0,0,0,.08-.23C307.39,289.19,308,287.84,306,286.68Z" transform="translate(-16.11 -19.02)"/><path class="cls-2" d="M297.65,298.1s1.81,1.07,1.61,2.6c0,0-2.16,3.08-3.68,3,0,0-2.78.55-1.26-2.68" transform="translate(-16.11 -19.02)"/><path class="cls-2" d="M289.58,308.33a3.71,3.71,0,0,1,1.48,2.59,5.77,5.77,0,0,1-4,2.86S283.39,313.73,289.58,308.33Z" transform="translate(-16.11 -19.02)"/><path class="cls-2" d="M282.65,319s1.56,2.16,1.38,2.57c0,0-2.38,3.24-4.51,2.59C279.52,324.16,276.81,323.72,282.65,319Z" transform="translate(-16.11 -19.02)"/><path class="cls-2" d="M276.18,332s-1.23,3.95-4.27,3.32c0,0-2.26-1.08,2.83-5.31" transform="translate(-16.11 -19.02)"/><path class="cls-2" d="M267.65,339.6a2,2,0,0,1,1,2.23,3.46,3.46,0,0,1-3.87,2.6S262.87,342.9,267.65,339.6Z" transform="translate(-16.11 -19.02)"/><path d="M224.82,269c3.41-1,6.7-1.73,10-2.46l9.74-2.09c3.23-.7,6.41-1.48,9.63-2.26s6.37-1.76,9.84-2.64a28.37,28.37,0,0,1-8.46,6.32,43.1,43.1,0,0,1-9.94,3.46,49.27,49.27,0,0,1-10.4,1.11A35,35,0,0,1,224.82,269Z" transform="translate(-16.11 -19.02)"/><path class="cls-15" d="M232.44,353.15a13.37,13.37,0,0,0,7.6,3c3.3.19,5.77-4.74,3.48-7-2-2-4.67-3.71-7.73-3.75C232.22,345.44,229.78,351,232.44,353.15Z" transform="translate(-16.11 -19.02)"/><path class="cls-15" d="M259.45,346.16a13.39,13.39,0,0,0-7.3,3.71c-2.32,2.36-.24,7.47,2.94,7.21,2.8-.23,5.87-1.07,7.91-3.35C265.39,351.08,262.79,345.56,259.45,346.16Z" transform="translate(-16.11 -19.02)"/><path class="cls-15" d="M242.9,357.07a11.51,11.51,0,0,0,7-.06c2.66-.91,3-5.56.48-6.56a10,10,0,0,0-7.3-.45C240.23,351.11,240.12,356.26,242.9,357.07Z" transform="translate(-16.11 -19.02)"/></g></svg>