<?xml version="1.0" encoding="utf-8"?>
<!-- Generator: Adobe Illustrator 24.0.1, SVG Export Plug-In . SVG Version: 6.00 Build 0)  -->
<svg version="1.1" xmlns="http://www.w3.org/2000/svg" xmlns:xlink="http://www.w3.org/1999/xlink" x="0px" y="0px"
	 viewBox="0 0 500 500" enable-background="new 0 0 500 500" xml:space="preserve">
<g id="draw">
	<path fill="none" stroke="#C4C4C4" stroke-width="2" stroke-miterlimit="10" d="M111.2,28.9L393,27.1c4.6,0,8.3,3.7,8.3,8.2
		L404,458c0,3.3-3.7,5.1-6.3,3.2L262,358.4c-2.9-2.2-6.8-2.2-9.7-0.1l-142,103.1c-2.6,1.9-6.3,0-6.3-3.2V36.1
		C104,32.2,107.2,28.9,111.2,28.9z"/>
</g>
<g id="color">
	<path fill="#C4C4C4" d="M104,458V36l2-5l5-4h284c0,0,8,0,6,11s3,420,3,420l-3,4l-82-62l-62-43l-17,9l-76,57l-54,39h-3L104,458z"/>
	<polygon fill="#C4C4C4" points="316,393 318,401 398,461 401,462 401,459 	"/>
	<polygon fill="#C4C4C4" points="312,393 318,401 322,397.7 	"/>
</g>
</svg>
