<svg xmlns="http://www.w3.org/2000/svg" viewBox="0 0 443.48 481.12"><defs><style>.cls-1{fill:#494949;}.cls-2{fill:#d3d3d3;opacity:0.53;}.cls-3{fill:#08a473;}.cls-4{fill:#a9ffe2;opacity:0.65;}.cls-5{fill:#b0d6c9;}.cls-16,.cls-17,.cls-6{fill:none;}.cls-17,.cls-20,.cls-6,.cls-7,.cls-8{stroke:#000;stroke-miterlimit:10;}.cls-7{fill:#fff;}.cls-8{fill:#5fc108;}.cls-9{fill:#2cc64d;}.cls-10{fill:#369949;}.cls-11{fill:#1d722a;}.cls-12{fill:#f4efc1;}.cls-13{fill:#b7b28f;}.cls-14,.cls-15{fill:#68b599;}.cls-15{opacity:0.44;}.cls-17{opacity:0.79;}.cls-18,.cls-19{fill:#bcbcbc;}.cls-18{opacity:0.21;}.cls-19{opacity:0.22;}.cls-20{fill:#232323;}.cls-21{font-size:28.07px;font-family:Type2, "Type 2";}.cls-22{letter-spacing:-0.2em;}</style></defs><title>alien-bag-empty</title><g id="SHAPE"><path class="cls-1" d="M198,174" transform="translate(-18.61 -6)"/><path class="cls-2" d="M180,442.3s99.42-3.74,112.16,2.28S409,448.53,385.39,458s184.16,25.18-.47,23.31-38.85,13.46-177.67.72c0,0-135.44-7.06-116.64-12s-103.82-9.88-64-14.4S136.82,439.27,180,442.3Z" transform="translate(-18.61 -6)"/><path class="cls-1" d="M230,182" transform="translate(-18.61 -6)"/><path class="cls-3" d="M303.84,431.08a1.5,1.5,0,0,0,0-3,1.5,1.5,0,0,0,0,3Z" transform="translate(-18.61 -6)"/></g><g id="color"><polyline class="cls-4" points="132.83 182.32 78.98 270.21 65.44 293.55 65.44 302.23 67.97 307.5 78.26 314.86 144.3 342.04 223.9 375.38 256.25 388.94 326.54 256.83 153.71 178.25 146.97 176 140.57 176.96 136.01 179.28 132.83 182.32"/><polyline class="cls-5" points="256.25 388.94 326.01 257.83 333.99 260.21 262.62 391.61 268.19 393.94 339.37 262.66 333.99 260.21 326.54 256.83 256.25 388.94 261.5 391.14 333.99 260.21 327.36 257.52 326.01 257.83"/><polyline class="cls-5" points="261.5 391.14 275.39 363.77 275.9 365.12 262.62 391.61"/></g><g id="bag"><path class="cls-6" d="M171,183.63l187,85L286.8,399.94,93.47,319a16.31,16.31,0,0,1-7.61-23.55L150.28,190A16.32,16.32,0,0,1,171,183.63Z" transform="translate(-18.61 -6)"/><polygon class="cls-6" points="256.25 388.94 326.54 256.83 333.99 260.21 262.62 391.61 256.25 388.94"/><path class="cls-6" d="M215.5,236.5s-6,85,14,112" transform="translate(-18.61 -6)"/><path class="cls-6" d="M202.5,238.5s-4,13,2,31" transform="translate(-18.61 -6)"/><path class="cls-7" d="M95.19,295s-1.3,4.27,0,18.5" transform="translate(-18.61 -6)"/><path class="cls-8" d="M294.18,410.53c1.06.84,1.06,4.21,4.26-3.38.72-1.71.68-2.6.24-3C297.16,402.86,293.11,409.68,294.18,410.53Z" transform="translate(-18.61 -6)"/><path class="cls-7" d="M351.5,324.5" transform="translate(-18.61 -6)"/><path class="cls-8" d="M294,397.73s-3.33,2.27,0,2.27S297.33,395.47,294,397.73Z" transform="translate(-18.61 -6)"/><path class="cls-8" d="M99.48,316.5s3.58-4,3.58,0,.89,5-1.79,4S99.48,316.5,99.48,316.5Z" transform="translate(-18.61 -6)"/><path class="cls-8" d="M90.5,313.5s2-3,2,0S88.5,310.5,90.5,313.5Z" transform="translate(-18.61 -6)"/><path class="cls-8" d="M303.78,463.29s.83-1.44,6.48.54-3.42,1.22-3.42,1.22Z" transform="translate(-18.61 -6)"/><path class="cls-7" d="M289.5,398.5" transform="translate(-18.61 -6)"/><path class="cls-8" d="M303.5,432.5s3-4,0-4S303.5,432.5,303.5,432.5Z" transform="translate(-18.61 -6)"/><path class="cls-8" d="M122.5,326.5s6-4,6,0c0,0,1.09.36,2.19.86,1.47.66,3,1.57,1.81,2.14a7.3,7.3,0,0,0-2.11,2.14c-.89,1.14-1.72,2-2.89.86a33.32,33.32,0,0,0-4-2.74C121.9,328.68,120.87,327.59,122.5,326.5Z" transform="translate(-18.61 -6)"/><path class="cls-8" d="M131.5,330.5" transform="translate(-18.61 -6)"/><path class="cls-8" d="M296.5,463.5s4-3,4-1,4,4,0,5S294.5,461.5,296.5,463.5Z" transform="translate(-18.61 -6)"/><path class="cls-8" d="M309.5,470.5c1.24.24,1,.43,1.84,1.21a1.07,1.07,0,0,1-.84.79c-3,1-6,2-3,3,1.26.42-3.12.25-3.83-.53-2.81-3.08,3.52-4.12,5.94-4.05C309.12,470.58,309.74,471,309.5,470.5Z" transform="translate(-18.61 -6)"/><path class="cls-8" d="M321.91,470a10.93,10.93,0,0,1-.41,4.47s-12-6-6-6a11.26,11.26,0,0,0,3.28-.35A2.4,2.4,0,0,1,321.91,470Z" transform="translate(-18.61 -6)"/><path class="cls-8" d="M161.5,324.5" transform="translate(-18.61 -6)"/></g><g id="alien_color" data-name="alien color"><path class="cls-9" d="M196,293c-1,1-1,.95-3,1-2.38.06-3.77-.88-3-1l2-7-2.41-9.71,1-9,6.78-39.16,6-18.85L211,195l8,2,1.5,9.35-1.63,11.08L215,223l-4,6-1,3v7l-3.45,11.14-2.29,5.67-.14,1.22.88,6-1.12,7.45L201,281.63l-2.79,8.19L195.21,294" transform="translate(-18.61 -6)"/><path class="cls-10" d="M242,211l7,2v7l-2,9-4,6-6,7-1,3-1,5-3,9-4,8-1,1c-.57.19,1.43,2.85,1,4a3.1,3.1,0,0,1-1,2l-2,10s-7,18-8,18-1,3.66-5.5,2.18L211,304h0l-1-1,1-8-1-6,4.67-20.32S224,233,225,233c0,0,10-21,11-19" transform="translate(-18.61 -6)"/><path class="cls-9" d="M264,222l5.28-1.12,5,1L275,228l-2,6-2,7-5,8-3,6-1,5-3,9-4,9s2-1,0,9a102.67,102.67,0,0,1-6,19s-3,10-5,9h-2s1-15,0-17,13-55,13-55Z" transform="translate(-18.61 -6)"/><polygon class="cls-9" points="122.86 330.35 147.39 343 147.6 338.32 148.38 332.04 152.28 320.52 154.61 317.38 155.39 314.24 154.61 311.1 153.06 310.05 149.16 309 142.93 311.1 138.26 313.19 133.59 316.33 125.27 325.67 122.86 330.35"/><path class="cls-9" d="M220,203l2.08,3.88L235.61,213l1.39,0s9-2,3-2-20-8-20-8" transform="translate(-18.61 -6)"/><path class="cls-9" d="M249,217c2,1,15,5,15,5l-1,3-13.74-5.77" transform="translate(-18.61 -6)"/><polyline class="cls-9" points="123.39 329 122.46 331.39 122.39 333 134.39 337.89 145.55 342.04"/><path class="cls-9" d="M247,229" transform="translate(-18.61 -6)"/><path class="cls-9" d="M176.62,131.66s-1.46,9.41-1.49,9.92.75,9.85.75,9.85l4.63,13.87,16.41,30,13.58,7.22,2.11,5,12.5,2.88,10.18,4.55,18.47,5.58L262.91,207l24.48-34.58L294,161.81l8.26-16.66,1.22-4.23.32-4.11-.35-.95-3.12-.09-21.68,3.1-19,.39-24.86-.17-35.25-2.89-5.9-.34L186,133.39l-9.16-2.57Z" transform="translate(-18.61 -6)"/><path class="cls-9" d="M251.52,219.6a1.5,1.5,0,0,0,0-3,1.5,1.5,0,0,0,0,3Z" transform="translate(-18.61 -6)"/><path class="cls-9" d="M251.77,219a1.5,1.5,0,0,0,0-3,1.5,1.5,0,0,0,0,3Z" transform="translate(-18.61 -6)"/><polyline class="cls-11" points="223.39 309 223.9 299.84 223.39 292 220.77 302.68 221.29 308.37"/><polyline class="cls-11" points="191.39 297 192.39 289 191.34 283.71 190.89 281.5 188.93 293.52 190.66 296.8"/><path class="cls-11" d="M190.65,293s1.3-7.17,1.16-7.72-2-7-2-7L188,288.47l1,4.48" transform="translate(-18.61 -6)"/><path class="cls-11" d="M166,349a7.27,7.27,0,0,0,1.37-1c.15-.27,4.51-15,4.51-15l1.9-8.55h-1L167.39,335,166,348" transform="translate(-18.61 -6)"/><polyline class="cls-12" points="128.89 104.5 128.89 109.5 137.62 116 150.89 122.78 158.97 124.94 163.26 126.24 175.03 129.86 198.48 131.64 228.62 133.5 262.33 132.87 279.94 129.97 291.48 127.52 306.76 122.42 312.97 118.74 311.89 109.5 306.76 103.72 298.45 91.54 294.93 86.39 292.77 80.84 292.77 76.94 292.45 73.02 290.69 62.74 285.89 34.59 282.72 18.4 280.89 14.5 276.55 9.5 269.42 7.43 257.89 4.14 248.89 2.5 242.87 1.9 229.9 1 221.92 1 210.83 1 202.39 1.29 198.44 1.42 190.17 2.91 186.89 3.5 177.89 5.5 170.14 9.5 167.89 12.5 150.89 72.5"/><path class="cls-12" d="M152.58,121.5" transform="translate(-18.61 -6)"/><path class="cls-13" d="M311.38,133.09" transform="translate(-18.61 -6)"/><polygon class="cls-13" points="260 132.87 260 127.57 257.89 115.5 255.89 107.5 253.55 96.94 250.24 88.99 248.52 19.6 218.39 0.5 237.51 1.37 260 4.74 276.55 10.7 282.72 18.4 289.55 55.06 292.77 76.94 291.23 80 298.45 91.54 305.94 102.03 312.65 111.58 312.97 118.74 304.65 122.42 296.68 126.19 260 132.87"/><path class="cls-10" d="M231.56,213.26s8.34-22.68,6.54-73.76l46.71-1.27,16.69-2.37,2.26.95-2.26,9.79-4.62,10.67L290,168.68l-13.47,20.4-18,23.95-4.24,6L249.47,217l.53-3.61-7.94-3.29-1.73,1.37-4.47,3.46" transform="translate(-18.61 -6)"/><path class="cls-10" d="M281.39,225" transform="translate(-18.61 -6)"/><rect class="cls-10" x="231.23" y="211.45" width="4.77" height="3.74" rx="1.55"/><path class="cls-9" d="M254.94,222.89a1.5,1.5,0,0,0,0-3,1.5,1.5,0,0,0,0,3Z" transform="translate(-18.61 -6)"/><path class="cls-9" d="M254.74,222.63a1.5,1.5,0,0,0,0-3,1.5,1.5,0,0,0,0,3Z" transform="translate(-18.61 -6)"/><path class="cls-9" d="M254.81,222.56a1.5,1.5,0,0,0,0-3,1.5,1.5,0,0,0,0,3Z" transform="translate(-18.61 -6)"/><path class="cls-9" d="M239.17,215.9a10.13,10.13,0,0,0,4.31.48,15.16,15.16,0,0,1,2,0s.3.05.1,0l.1,0a3.59,3.59,0,0,1,.47.12l.23.07s.27.11.1,0,.07,0,.1.06l.27.15a1.5,1.5,0,1,0,1.51-2.59,8.11,8.11,0,0,0-4.52-.91c-.7,0-1.41.06-2.11,0l-.5,0c-.17,0-.1,0,0,0l-.24,0A5.73,5.73,0,0,1,240,213a1.5,1.5,0,0,0-1.84,1.05,1.54,1.54,0,0,0,1,1.84Z" transform="translate(-18.61 -6)"/><path class="cls-10" d="M238.28,216.38c-.17.14.15-.08.2-.11-.21.09.24-.05.3-.06s.1,0,0,0l.24,0h.47a11.12,11.12,0,0,0,2.58-.14,3.31,3.31,0,0,0,2.6-3.88,1.5,1.5,0,0,0-1.84-1.05l-2.91.94,1.15,2.74a3.06,3.06,0,0,1,1.78-.12,9.44,9.44,0,0,1,2.14.73,3.31,3.31,0,0,1,1.44,1.21c.16.27,0-.09.09.22,0,.1.05.2.07.3q0-.21,0,.06c0,.06,0,.49,0,.21-.06.17-.06.19,0,.07a1.35,1.35,0,0,1-.15.26l1.7-.69-6.71-2.78a1.52,1.52,0,0,0-1.85,1.05,1.54,1.54,0,0,0,1.05,1.84l6.71,2.78a1.5,1.5,0,0,0,1.69-.68c1.45-2.34-.09-5.05-2.23-6.27s-4.91-1.91-7.24-.78c-1.53.74-.46,3.26,1.16,2.74l2.9-.94-1.84-1.05c0-.14,0-.15,0,0s0,.09,0-.06,0-.05,0,0c.15-.2-.13.13-.15.14.15-.12-.06,0-.13.06a2.61,2.61,0,0,1-.47.09,7.49,7.49,0,0,1-1.06,0,5.3,5.3,0,0,0-3.79,1.08,1.52,1.52,0,0,0,0,2.12,1.54,1.54,0,0,0,2.13,0Z" transform="translate(-18.61 -6)"/><path class="cls-10" d="M248.16,216.63a1.5,1.5,0,0,0,0-3,1.5,1.5,0,0,0,0,3Z" transform="translate(-18.61 -6)"/><path class="cls-10" d="M245,217.64a4.88,4.88,0,0,0,1.28-4.06,3.48,3.48,0,0,0-2.51-2.66c-1.48-.31-2.67.55-3.84,1.31l-3.34,2.16a1.5,1.5,0,0,0,1.51,2.59l2.6-1.68,1.3-.84.58-.37.28-.16c.31-.18-.24,0,.11-.05.06,0,.36,0,.17,0s-.1,0,0,0l-.2,0s.35.07.11,0,.1,0,.1.07l-.1-.08.12.11c.19.17-.09-.17,0,0a1.76,1.76,0,0,1,.14.23c.16.26,0-.18,0,0s.08.19.06.26c0-.2,0-.23,0-.11v.18c0,.28,0-.14,0,0s0,.2-.07.3-.19.37,0,.1a2.39,2.39,0,0,0-.12.22c-.06.11-.13.21-.2.32-.16.27.15-.17-.06.1a1.5,1.5,0,0,0,2.12,2.12Z" transform="translate(-18.61 -6)"/><polygon class="cls-14" points="212.95 208.46 211.39 215.39 216.37 209.58 213.88 207.68 212.95 208.46"/><path class="cls-15" d="M212.46,304s-3,18.46-11.27,59.54l73.67,30.86,70.29-132.11L274,230.07l-1.94,9.1-4.37,6.64-4.16,7.65-1.5,6-2.22,8L256.12,277l-1.12.5,1,3.32-2.29,11.63-4.68,13-3,7.5-2.19,1.68-3.48-1.15-1.35-3.82,1.21-6.48L242.76,292l12.59-50.31L263,225.77l-13.48-6-2.5,9.11-9.65,12.58-1.85,3.25-.52,6.87-8.19,15.82,1,3.77-2.18,11.42-5.42,13.5s-4,7.21-4.26,7.21S212.46,304,212.46,304Z" transform="translate(-18.61 -6)"/><polygon class="cls-9" points="210.61 218.5 193.77 298.53 190.89 297.64 192.39 294.42 193.17 289.25 190.97 282.47 194.88 266.32 200.7 244.24 209.16 220.59 210.61 218.5"/></g><g id="ALIEN"><path class="cls-6" d="M174,321.61c1.34-.06-7.49,34-7.83,26.92a42,42,0,0,1,7-24.71,6.3,6.3,0,0,0-.61-7.36,3.43,3.43,0,0,0-2-1c-17.14-2.23-28.92,20.31-28.92,20.31-1.14,2.78-.62,3.15-.62,3.15l1.48.63" transform="translate(-18.61 -6)"/><path class="cls-6" d="M218.45,205.23" transform="translate(-18.61 -6)"/><path class="cls-6" d="M218.5,205.5" transform="translate(-18.61 -6)"/><path class="cls-6" d="M218.5,196.5l2.5,9.73-1.8,9.22c.51,4.47-10.29,13.56-9,18.84s-6.27,22.32-6.27,22.32c4.19,7.78-6.25,34.5-6.25,34.5s-2,4.76-6.15,3.07a5.21,5.21,0,0,1-3.46-5.63c7.76-73.82,17.16-82.45,17.16-82.45l2.39-5.6,3.89-6Z" transform="translate(-18.61 -6)"/><path class="cls-6" d="M249.47,219.9l-2.74,9c.1,4.53-11.89,12.17-11.07,17.62s-8.6,21.45-8.6,21.45c3.57,8.32-9.73,33.62-9.73,33.62s-2.49,4.49-6.63,2.25a5.35,5.35,0,0,1-3-6.08c15-72.68,25.54-80.06,25.54-80.06l3-4,6.29-3.2,7,3Z" transform="translate(-18.61 -6)"/><path class="cls-6" d="M274.41,228.78l-2.4,9.06c-.07,4.45-9.62,13-9.16,18.32S255.51,278,255.51,278c2.51,7.86-8.6,33.93-8.6,33.93s-2.08,4.63-5.22,2.8-2.16-5.7-2.16-5.7c13.95-72.81,22.34-81,22.34-81l2.63-5.71,5-2,5,2V229" transform="translate(-18.61 -6)"/><path class="cls-6" d="M234.79,224.16" transform="translate(-18.61 -6)"/><path class="cls-6" d="M189.72,292.63c1.2,2.13,2-7.13,2-7.13l-2.12-8" transform="translate(-18.61 -6)"/><path class="cls-6" d="M209.5,287.5l2,8s-.74,9.26-1.87,7.13" transform="translate(-18.61 -6)"/><path class="cls-6" d="M242.5,298v7.5s.13,11.13-1,9" transform="translate(-18.61 -6)"/><path class="cls-6" d="M240.5,211.5c-7-1-20-9-20-9" transform="translate(-18.61 -6)"/><path class="cls-6" d="M250.5,217.5c-2-.76-4-.83,14,5" transform="translate(-18.61 -6)"/><path class="cls-6" d="M133,337" transform="translate(-18.61 -6)"/><path class="cls-6" d="M190.5,42.5" transform="translate(-18.61 -6)"/><path class="cls-6" d="M157.5,49.5" transform="translate(-18.61 -6)"/><path class="cls-16" d="M237,7s14,0,19,1,12,2,19,3,13,4,15,7,6,18,5,25" transform="translate(-18.61 -6)"/><path class="cls-17" d="M147.5,110.5c-.27.37,9-12.28,13.7-18.75.6-.83,1.23-1.63,1.87-2.42a51.69,51.69,0,0,0,4.25-5.75c2.75-4.63,3.72-9.81,4.74-15a327.8,327.8,0,0,1,14.44-50c36.3,10.06,74.25,8,111.82,5.23,1.06-.08,2.28-.1,3,.67a3.57,3.57,0,0,1,.74,2l9,52.66a10.86,10.86,0,0,1,.14,4.5c-.83,3.25-4.32,5-7.51,6a101.46,101.46,0,0,1-19.19,3.83A283.68,283.68,0,0,1,238,95.2a276.88,276.88,0,0,1-46-5.69c-2.9-.61-5.78-1.32-8.62-2.14-2.35-.68-5.16-1.23-7.16-2.63a61.7,61.7,0,0,1-6.69-6.24" transform="translate(-18.61 -6)"/><path class="cls-6" d="M310.5,85.5a10.56,10.56,0,0,1,2,5c0,1,11,16,11,16l7,9s3,8-1,10-5,3-5,3l-10,4-13,3-18,3-17,1h-21l-26-1-26-3-25-7-17-9-3-3-1-1s-1-5,0-5" transform="translate(-18.61 -6)"/><path class="cls-6" d="M315.28,95" transform="translate(-18.61 -6)"/><path class="cls-6" d="M166.69,84.57" transform="translate(-18.61 -6)"/><path class="cls-6" d="M161.5,90.5" transform="translate(-18.61 -6)"/><polyline class="cls-6" points="282.89 18.5 280.89 14.5 277.89 11.5 272.89 8.5 259.89 4.5 248.89 2.5 238.89 1.5 227.89 0.5 215.89 0.5"/><polyline class="cls-6" points="216.33 0.5 196.89 1.5 186.89 3.5 177.89 5.5 170.89 8.5 167.89 12.5"/><path class="cls-6" d="M168,86" transform="translate(-18.61 -6)"/><path class="cls-6" d="M167,85l4.5,3.5,12,6,12,4,17,3,22,2,20,1s28-1,29-1,18-2,18-2l14-6" transform="translate(-18.61 -6)"/><path class="cls-6" d="M160.74,92.39c2.76,2.11,7.76,6.11,7.76,6.11l20,8,30,6s37,1,38,1,30-1,30-1l23-4,10-6,.82-.39" transform="translate(-18.61 -6)"/><path class="cls-6" d="M155.32,99.82s5.18,3.68,8.18,5.68,14,5,15,6,26,7,26,7l24,3h31l29-1,22-5,14-6,.87-.6" transform="translate(-18.61 -6)"/><path class="cls-6" d="M148.07,109.73c.43.77,4.43,4.77,5.43,5.77s15,8,16,8c2.61,0,5.69,1.35,8.19,2,4.69,1.2,9.36,2.54,14.08,3.63A193.4,193.4,0,0,0,222,133.47c19.32,1.37,38.63.74,57.94.05l.58,0,23-3,20-5,8-6" transform="translate(-18.61 -6)"/><path class="cls-18" d="M265,45h-5s15-13,33-14c0,0-6,4-8,5s-19,7-19,7v2" transform="translate(-18.61 -6)"/><path class="cls-19" d="M206,39l-1-7s-3-3-11-2c0,0,6,0,12,8" transform="translate(-18.61 -6)"/><path class="cls-6" d="M176.8,130.78c-2.26,10.8-2.39,15.94-.14,23.7,5.43,18.76,10.75,25.07,20.72,41.55h0" transform="translate(-18.61 -6)"/><path class="cls-6" d="M276.5,194.5" transform="translate(-18.61 -6)"/><path class="cls-6" d="M217.33,220.34" transform="translate(-18.61 -6)"/><path class="cls-6" d="M253.94,219.07s55-68,49.47-83.21" transform="translate(-18.61 -6)"/><path class="cls-6" d="M217.2,230.81" transform="translate(-18.61 -6)"/><path class="cls-6" d="M214.5,224.5" transform="translate(-18.61 -6)"/><path class="cls-6" d="M216,228.5" transform="translate(-18.61 -6)"/><path class="cls-6" d="M219.5,236.5" transform="translate(-18.61 -6)"/><path class="cls-6" d="M224.3,235" transform="translate(-18.61 -6)"/><path class="cls-6" d="M221.9,235.89" transform="translate(-18.61 -6)"/><path class="cls-6" d="M220,237.34" transform="translate(-18.61 -6)"/><path class="cls-6" d="M221,228" transform="translate(-18.61 -6)"/><path class="cls-6" d="M223.81,235.89" transform="translate(-18.61 -6)"/><path class="cls-6" d="M189.59,151.39" transform="translate(-18.61 -6)"/><path class="cls-6" d="M238,178.18c12.71.61,48-1.1,49.1-33.53a2.74,2.74,0,0,0-2.48-2.81c-9.06-.9-40.17-1.33-48.7,33.57A2.24,2.24,0,0,0,238,178.18Z" transform="translate(-18.61 -6)"/><line class="cls-6" x1="229.89" y1="146.97" x2="267.14" y2="147.24"/><line class="cls-6" x1="264.07" y1="154.14" x2="224.7" y2="152.87"/><path class="cls-6" d="M228.67,178.22c-13.43.47-47.1-1.91-48.16-33.61a2.7,2.7,0,0,1,2.44-2.77c8.94-.89,39.67-1.37,48.52,32.68A3,3,0,0,1,228.67,178.22Z" transform="translate(-18.61 -6)"/><line class="cls-6" x1="200.5" y1="146.97" x2="163.26" y2="147.24"/><line class="cls-6" x1="166.33" y1="154.14" x2="205.7" y2="152.87"/><path class="cls-6" d="M308.16,167.13" transform="translate(-18.61 -6)"/><path class="cls-6" d="M200,156.31" transform="translate(-18.61 -6)"/><path class="cls-6" d="M204.5,151.39" transform="translate(-18.61 -6)"/><path class="cls-6" d="M198,157.27" transform="translate(-18.61 -6)"/><path class="cls-6" d="M181.87,150.35" transform="translate(-18.61 -6)"/><path class="cls-20" d="M231,194.5s-1.64-2.34-2.51-2.34-2.94.81-2,2.34,3.52,5.4,3.52,5.4l4.79-3.87s.86-1.29-1.08-2.71a2,2,0,0,0-3.09.63l-.62,6" transform="translate(-18.61 -6)"/><path d="M199.9,159.3q10.71-.23,21.42-.1a1.5,1.5,0,0,0,0-3q-10.71-.13-21.42.1c-1.93,0-1.93,3,0,3Z" transform="translate(-18.61 -6)"/><path d="M206,154.76l0-.16-.15,1.16c-.67.29-.74.41-.23.35h7.6c1.37,0,2.74,0,4.11,0,.46,0,1.54-.07,1.85.37a1.53,1.53,0,0,0,2.05.53,1.51,1.51,0,0,0,.54-2,4.58,4.58,0,0,0-3.81-1.83c-1.78-.1-3.59,0-5.38,0H207a7.63,7.63,0,0,0-2.7.2,1.9,1.9,0,0,0-1.22,2.24,1.51,1.51,0,0,0,1.85,1,1.54,1.54,0,0,0,1-1.84Z" transform="translate(-18.61 -6)"/><path d="M203.9,153.65q-5.13.18-10.26.1a1.5,1.5,0,0,0,0,3H194a1.5,1.5,0,1,0,0-3h-.33v3q5.13.08,10.26-.1a1.53,1.53,0,0,0,1.5-1.5,1.51,1.51,0,0,0-1.5-1.5Z" transform="translate(-18.61 -6)"/><path d="M203.9,153.24H183.77a1.5,1.5,0,0,0,0,3H203.9a1.5,1.5,0,0,0,0-3Z" transform="translate(-18.61 -6)"/><path d="M182.5,155.76a7.39,7.39,0,0,1,.69.78l-.24-.31a8.82,8.82,0,0,1,1.09,1.85l-.16-.36a7.56,7.56,0,0,1,.37,1,1.5,1.5,0,1,0,2.89-.8,9.85,9.85,0,0,0-2.52-4.32,1.51,1.51,0,0,0-2.12,0,1.53,1.53,0,0,0,0,2.12Z" transform="translate(-18.61 -6)"/><path d="M186.7,160.14a1.83,1.83,0,0,1,1.11-.16h9.43a4.41,4.41,0,0,0,3.36-.91,1.5,1.5,0,0,0-.66-2.5,35.78,35.78,0,0,0-6.65-1.25q-1.62-.15-3.24-.15A14.8,14.8,0,0,1,187,155a1.54,1.54,0,0,0-1.84,1.05,1.52,1.52,0,0,0,1,1.85c2.16.45,4.39.2,6.57.38a32.07,32.07,0,0,1,6.37,1.18l-.66-2.51c-.09.09-.66,0-.84,0h-9a5.8,5.8,0,0,0-3.42.57,1.54,1.54,0,0,0-.54,2,1.51,1.51,0,0,0,2,.54Z" transform="translate(-18.61 -6)"/><path d="M203.25,157.27a25.36,25.36,0,0,1,3.8-.12l4.12,0,4,0a15.33,15.33,0,0,1,3.89.07,1.5,1.5,0,0,0,.8-2.89,15.54,15.54,0,0,0-4.2-.18l-4.45,0a56.37,56.37,0,0,0-8.72.26,1.5,1.5,0,0,0-1,1.84,1.53,1.53,0,0,0,1.84,1.05Z" transform="translate(-18.61 -6)"/><path d="M197.84,158.05a1.5,1.5,0,0,0,0-3,1.5,1.5,0,0,0,0,3Z" transform="translate(-18.61 -6)"/><path d="M205.71,156.68q6.9-.15,13.81,0c1.93.05,1.93-2.95,0-3q-6.9-.16-13.81,0c-1.93,0-1.94,3,0,3Z" transform="translate(-18.61 -6)"/><path d="M222.49,157.58a1,1,0,0,0,0,.38,1,1,0,0,0,.14.35,1.09,1.09,0,0,0,.24.29,1.18,1.18,0,0,0,.39.23.36.36,0,0,0,.29,0,.39.39,0,0,0,.17-.23.42.42,0,0,0,0-.29l-.06-.07a.42.42,0,0,0-.17-.1h0l.09,0-.18-.1.08.06a.75.75,0,0,1-.15-.16l.06.08a.82.82,0,0,1-.12-.2l0,.09a.79.79,0,0,1-.06-.22v.1a.74.74,0,0,1,0-.21.39.39,0,0,0-.11-.27.41.41,0,0,0-.26-.11.44.44,0,0,0-.27.11l-.06.08a.41.41,0,0,0,0,.19Z" transform="translate(-18.61 -6)"/><path d="M255.77,157.43h8.71c.82,0,1.06-1.35.2-1.47q-8.19-1.22-16.24-3.21a.77.77,0,0,0-.92.53c-.61,1.85-2.15,3.08-3.62,4.24a.76.76,0,0,0,.33,1.26c3.3.84,6.9.54,10.29.58l11,.11,11,.11c1.62,0,3.3.17,4.92,0a2.1,2.1,0,0,0,2.06-1.41l-1.37.18.07.59,1.44.39,1.94-5.21a.76.76,0,0,0-.73-1l-20.29.07-9.9,0c-2.3,0-5.07-.21-6.71,1.72-.62.73.43,1.8,1.06,1.06,1.65-2,5.38-1.28,7.63-1.29l9.4,0,18.81-.07-.72-.95L282.16,159c-.34.91,1.09,1.27,1.44.39a1.65,1.65,0,0,0-.22-1.73.76.76,0,0,0-1.37.18c-.22.73-3.69.29-4.28.29l-4.74,0-9.49-.1-9.23-.1c-3.16,0-6.56.27-9.64-.52l.33,1.25c1.7-1.35,3.31-2.78,4-4.9l-.93.52q8,2,16.24,3.2l.2-1.47h-8.71a.75.75,0,0,0,0,1.5Z" transform="translate(-18.61 -6)"/><path d="M246.55,158.18c2.77-1.47,6-1.22,8.95-.66a59.62,59.62,0,0,0,8.81,1.3c6.35.25,12.73,0,19.08,0a.75.75,0,0,0,0-1.5c-6.64,0-13.37.31-20-.08-5.83-.35-12-3.35-17.6-.4-.86.45-.1,1.75.76,1.3Z" transform="translate(-18.61 -6)"/><path d="M283,159.3l1.2-4a.75.75,0,0,0-.19-.73,2.5,2.5,0,0,0-1.95-.7c-1.25,0-2.51.2-3.76.28q-4,.27-8.09.38-8,.22-16-.19c-1-.05-1,1.45,0,1.5,4.83.24,9.66.33,14.49.23q3.57-.07,7.12-.27c1.15-.06,2.29-.13,3.43-.22.84-.06,3-.64,3.67,0l-.2-.73-1.2,4c-.28.93,1.17,1.32,1.45.4Z" transform="translate(-18.61 -6)"/><path d="M248.78,156.74a14.57,14.57,0,0,1,3.68-.79q.66,0,1.32,0c.53,0,2,.28.74.74a13.28,13.28,0,0,1-7.1.42v1.44c4.1-1.57,8.54-.15,12.76,0,4.65.14,9.28-.47,13.92-.55,2.3,0,4.58.05,6.87.23,1.33.11,3,0,3.45-1.59s-1-2.19-2.23-2.22c-2.25-.05-4.52.12-6.77.19q-3.92.12-7.82.27c-1.8.06-4.57-.37-5.91,1.13-.38.43-.17,1.37.53,1.28a95.7,95.7,0,0,1,21.86-.32l-.65-1.13c-.41.84-3.23.39-4,.39H265.71a.75.75,0,0,0,0,1.5h11c1.8,0,3.59,0,5.39,0,1,0,2.11-.12,2.61-1.13a.77.77,0,0,0-.65-1.13,95.7,95.7,0,0,0-21.86.32l.53,1.28c.78-.87,2.55-.61,3.63-.65l3.42-.12q3.66-.13,7.33-.24l3.42-.1a7,7,0,0,1,1.82,0c.8.19.8.46,0,.82a4.36,4.36,0,0,1-1,0c-2.34-.08-4.66-.31-7-.27-4.8.06-9.61.72-14.41.54-4.3-.16-8.73-1.52-12.92.09-.62.24-.79,1.28,0,1.44a15.4,15.4,0,0,0,5.74.14c1.18-.21,3.75-.55,4-2.09.5-3.64-6.76-1.81-8.33-1.28-.91.31-.52,1.76.39,1.45Z" transform="translate(-18.61 -6)"/><path class="cls-9" d="M257.06,221.57a.38.38,0,0,0,0-.75.38.38,0,0,0,0,.75Z" transform="translate(-18.61 -6)"/><line class="cls-6" x1="244.15" y1="220.11" x2="230.86" y2="213.9"/><path class="cls-6" d="M235.29,214.93c-1.45-.19-15-6.92-15-6.92" transform="translate(-18.61 -6)"/><line class="cls-6" x1="178.77" y1="190.03" x2="188.93" y2="195.41"/><path class="cls-6" d="M387,317.79" transform="translate(-18.61 -6)"/><path class="cls-6" d="M192.74,252.15" transform="translate(-18.61 -6)"/><text class="cls-21" transform="translate(167.89 62.74)">FORO<tspan class="cls-22" x="59.68" y="0"> </tspan><tspan x="66.36" y="0">420</tspan></text></g></svg>